<svg xmlns="http://www.w3.org/2000/svg">
<defs>
<font horiz-adv-x="550" id="c6310aa0-a8a1-4afc-a747-091de3970894">
<font-face font-family="" panose-1="2 11 6 3 2 2 2 2 2 4" ascent="948" descent="-250" units-per-em="1000" alphabetic="0">
</font-face>
<missing-glyph horiz-adv-x="0" />

<glyph unicode="&#xA;" />
<glyph unicode="&#xD;" horiz-adv-x="0" />
<glyph unicode=" " horiz-adv-x="278" />
<glyph unicode="!" horiz-adv-x="389" d="M240 165H169L150 721H262L240 165ZM149 100H255V0H149V100Z"  />
<glyph unicode="&quot;" horiz-adv-x="400" d="M159 692L145 446H91L76 692H159ZM324 692L309 446H255L241 692H324Z"  />
<glyph unicode="#" horiz-adv-x="556" d="M6 266H118L146 415H46V484H159L197 692H278L239 484H361L399 692H480L441 484H541V415H428L401 266H500V197H388L351 0H271L307 197H186L149 0H69L105 197H5L6 266ZM320 266L348 415H226L199 266H320Z"  />
<glyph unicode="$" horiz-adv-x="556" d="M304 775V694Q315 694 335 693T379 686T427 671T472 642T505 597T520 530H415Q414 554 405 569T381 594T345 608T303 613V404Q341 393 381 380T455 343T509 285T530 198Q530 161 520 133T495 85T465 52T440 33Q423 22 404 15T367 4T331 -2T301 -5V-104H250V-5Q233 -5 214 -4T173 3T129 19T84 51Q64 69 53 86T37 122T30 157T28 190H130Q129 173 134 155T153 120T190 92T250 80V314Q188 332 148 350T84 391T51 443T41 512Q41 543 49 567T70 610T98 641T126 662Q143 672 161 678T197 688T228 692T253 693V775H304ZM252 613Q211 609 189 597T156 569T143 540T140 519Q140 494 150 477T177 449T214 431T252 419V613ZM303 80Q336 80 359 90T397 115T419 149T426 186Q426 214 414 233T384 266T344 287T303 301V80Z"  />
<glyph unicode="%" horiz-adv-x="889" d="M222 711Q265 711 294 696T342 657T369 600T377 534Q377 487 364 453T329 397T277 364T213 353Q180 353 151 363T100 394T65 449T52 528Q52 567 62 600T94 658T148 697T222 711ZM215 411Q246 411 263 427T287 463T296 502T298 530Q298 548 295 569T283 609T258 639T215 651Q183 651 166 636T140 599T131 558T129 529Q129 520 130 501T140 461T165 426T215 411ZM675 346Q685 346 699 345T730 338T763 324T795 298Q802 290 809 280T822 255T832 220T836 171Q836 89 796 39T675 -12Q627 -12 596 4T545 45T519 103T511 166Q511 211 524 245T559 301T612 335T675 346ZM674 47Q704 47 721 61T747 94T758 134T760 169Q760 181 758 201T748 241T722 275T676 290Q644 290 627 274T601 235T592 190T590 156Q590 143 592 125T603 89T628 59T674 47ZM185 -39L626 731H692L251 -39H185Z"  />
<glyph unicode="&amp;" horiz-adv-x="778" d="M692 468Q692 415 688 374T673 298T646 232T604 167L776 0H636L542 89Q491 39 429 11T292 -17Q234 -17 189 -1T112 44T65 110T49 191Q49 233 62 266T96 327T145 377T201 421Q190 431 176 446T148 482T127 529T118 587Q118 658 168 702T312 746Q346 746 371 742T413 732T441 717T462 701Q482 682 493 657T505 602Q505 562 489 530T451 474T405 432T365 404L542 229Q556 252 566 275T582 325T592 387T595 468H692ZM301 469Q310 475 326 487T359 516T386 553T398 598Q398 609 394 621T379 643T353 659T315 666Q274 666 250 644T225 592Q225 561 246 531T301 469ZM265 358Q203 312 179 273T154 194Q154 156 169 132T208 93T257 73T307 67Q341 67 368 76T416 98T452 125T477 149L265 358Z"  />
<glyph unicode="&apos;" horiz-adv-x="278" d="M181 692L166 446H112L98 692H181Z"  />
<glyph unicode="(" horiz-adv-x="333" d="M192 -123Q172 -73 151 -18T112 94T84 209T73 322Q73 382 85 440T114 555Q135 623 153 671T185 752H251Q239 715 224 664T192 540Q176 471 170 421T164 324Q164 271 170 221T189 119T218 7T257 -123H192Z"  />
<glyph unicode=")" horiz-adv-x="333" d="M141 752Q161 702 182 647T220 535T249 421T260 308Q260 248 248 190T219 75Q198 7 180 -42T148 -123H82Q94 -85 109 -34T141 90Q157 159 163 209T169 306Q169 359 163 408T144 510T115 622T76 752H141Z"  />
<glyph unicode="*" horiz-adv-x="556" d="M480 488L308 507L410 369L345 329L278 487L206 331L138 368L244 507L78 493V566L247 544L145 684L211 720L278 565L347 721L414 684L309 544L480 563V488Z"  />
<glyph unicode="+" horiz-adv-x="584" d="M250 213H37V290H250V503H334V290H547V213H334V0H250V213Z"  />
<glyph unicode="&#x2c;" horiz-adv-x="278" d="M229 120L117 -126H49L113 120H229Z"  />
<glyph unicode="-" horiz-adv-x="333" d="M42 301H293V225H42V301Z"  />
<glyph unicode="." horiz-adv-x="278" d="M81 120H192V0H81V120Z"  />
<glyph unicode="/" horiz-adv-x="278" d="M225 713H290L57 -16H-9L225 713Z"  />
<glyph unicode="0" horiz-adv-x="556" d="M44 338Q44 364 46 401T55 479T77 560T118 633T182 686T276 706Q328 706 365 689T428 644T469 579T493 503T505 425T508 354Q508 231 484 157T412 39Q394 22 375 12T337 -4T302 -12T274 -14Q239 -14 210 -5T158 20T118 57T89 101Q72 135 58 190T44 338ZM140 343Q140 285 146 235T168 148T210 90T275 69Q318 69 345 94T386 160T406 249T411 345Q411 407 405 459T384 548T342 605T277 626Q232 626 205 599T163 531T145 440T140 343Z"  />
<glyph unicode="1" horiz-adv-x="556" d="M271 583Q255 569 235 555T193 528T150 504T110 483V583Q159 609 204 638T278 692H367V0H271V583Z"  />
<glyph unicode="2" horiz-adv-x="556" d="M53 91L234 269Q263 297 290 326T341 388Q371 429 381 456T392 511Q392 524 389 543T374 580T340 611T281 624Q239 624 217 609T183 573T170 533T168 503H63Q63 516 65 534T73 572T91 614T127 655Q163 686 203 695T277 705Q317 705 355 694T424 659T472 597T491 503Q491 486 490 471T481 436T457 391T413 330Q405 321 387 301T349 260T311 220T285 194L164 79H493V0H53V91Z"  />
<glyph unicode="3" horiz-adv-x="556" d="M144 178Q143 128 175 97T271 65Q307 65 333 75T376 103T401 143T409 188Q409 215 401 236T378 272T346 296T309 310Q282 315 261 315T213 315V396Q239 394 271 396T331 411T379 449T398 516Q398 574 363 599T276 625Q256 625 236 620T197 603T166 569T150 516H49Q51 580 78 618T142 675T215 699T273 705Q330 705 372 690T442 648T485 588T499 518Q499 497 493 472T470 424T428 383T361 355Q416 347 446 322T490 269T506 216T509 187Q509 151 494 115T449 49T374 1T269 -17Q214 -17 163 0T79 55Q64 71 56 88T44 122T39 152T38 178H144Z"  />
<glyph unicode="4" horiz-adv-x="556" d="M340 150H28V269L328 701H436V231H537V150H436V0H340V150ZM343 231V596L104 231H343Z"  />
<glyph unicode="5" horiz-adv-x="556" d="M160 164Q161 138 171 120T198 89T235 72T275 66Q320 66 347 84T389 128T407 181T412 225Q412 296 377 335T281 374Q251 374 228 364T188 338Q172 322 166 307T156 280H65L83 692H472V611H169L156 387Q164 395 176 406T206 427T248 444T302 451Q354 451 393 432T457 382T496 309T509 223Q509 172 492 129T442 53T365 2T262 -16Q220 -16 184 -5T119 29T75 86T56 164H160Z"  />
<glyph unicode="6" horiz-adv-x="556" d="M407 528Q407 558 397 578T371 610T337 626T302 631Q227 631 192 566T149 361Q157 373 169 388T200 416T245 439T310 449Q352 449 390 435T456 393T502 324T519 227Q519 167 499 122T447 46T372 0T285 -15Q234 -15 188 4T114 60Q95 85 83 116T63 180T54 247T51 315Q51 353 55 396T69 483T97 567T143 638T212 687T307 706Q341 706 368 700T415 683T449 662T473 640Q486 625 493 609T504 579T509 551T510 528H407ZM289 61Q312 61 336 69T379 97T411 146T423 218Q423 236 419 262T402 313T363 355T294 372Q259 372 233 359T190 324T165 275T156 217Q156 183 166 155T193 105T235 73T289 61Z"  />
<glyph unicode="7" horiz-adv-x="556" d="M35 692H492V608L238 0H125L391 609H35V692Z"  />
<glyph unicode="8" horiz-adv-x="556" d="M190 365Q121 380 86 423T51 519Q51 542 60 574T95 636T163 687T275 708Q330 708 372 694T444 655T489 597T505 523Q505 497 497 472T471 426T427 389T364 366Q379 362 404 353T454 325T497 273T515 191Q515 155 502 119T461 54T387 7T277 -12Q232 -12 184 -1T98 46Q70 72 54 108T37 185Q37 220 50 253T90 312Q115 337 141 347T190 365ZM409 521Q409 569 376 601T279 634Q251 634 227 626T186 604T158 568T148 521Q148 496 158 476T185 440T225 417T276 409Q333 409 371 439T409 521ZM138 194Q138 174 145 152T168 110T211 79T277 67Q319 67 345 80T387 112T409 154T415 197Q415 255 377 289T279 324Q247 324 221 314T177 287T148 245T138 194Z"  />
<glyph unicode="9" horiz-adv-x="556" d="M151 165Q151 120 177 92T262 63Q319 63 350 92T395 166T410 259T410 350Q396 324 378 308T340 281T297 267T255 263Q214 263 176 277T108 318T62 387T44 482Q44 542 63 584T114 653T185 692T266 705Q294 705 326 698T390 673T447 621T489 535Q498 503 503 462T509 349Q509 323 508 287T500 209T477 128T433 56T361 4T254 -16Q219 -16 183 -8T116 20T67 76T46 165H151ZM399 480Q399 517 388 545T358 592T315 620T266 630Q236 630 213 618T174 586T150 539T142 481Q142 413 179 376T273 339Q332 339 365 378T399 480Z"  />
<glyph unicode=":" horiz-adv-x="278" d="M83 507H194V389H83V507ZM83 118H194V0H83V118Z"  />
<glyph unicode=";" horiz-adv-x="278" d="M95 507H211V387H95V507ZM229 120L117 -126H49L113 120H229Z"  />
<glyph unicode="&lt;" horiz-adv-x="584" d="M37 292L547 492V406L141 251L547 97V10L37 210V292Z"  />
<glyph unicode="=" horiz-adv-x="584" d="M37 391H547V314H37V391ZM37 189H547V111H37V189Z"  />
<glyph unicode="&gt;" horiz-adv-x="584" d="M37 10V97L443 251L37 406V492L547 292V210L37 10Z"  />
<glyph unicode="?" horiz-adv-x="500" d="M74 715Q92 721 127 728T216 736Q279 736 326 721T403 674Q424 651 436 621T448 558Q448 528 441 505T419 460T381 414T327 358Q325 356 316 347T297 328T279 310T271 301Q266 293 265 287T263 270V164H179V270Q179 285 180 295T185 315T200 337T231 371Q260 401 281 424T316 468T337 508T344 549Q344 587 327 608T286 639T241 651T209 653Q198 653 162 650T74 625V715ZM171 102H275V0H171V102Z"  />
<glyph unicode="@" horiz-adv-x="1015" d="M722 549L661 343Q656 324 651 304T645 267Q645 253 650 245T662 233T676 227T689 226Q713 226 737 242T782 287T815 356T828 445Q828 509 804 556T741 635T649 681T541 697Q470 697 406 674T294 607T216 497T187 349Q187 275 212 216T283 114T391 50T528 27Q616 27 681 54T803 122L828 89Q762 41 691 12T525 -17Q441 -17 371 9T249 84T170 201T141 352Q141 447 175 520T266 642T394 716T541 741Q605 741 665 723T772 667T847 573T875 440Q875 379 857 331T809 248T743 195T671 176Q640 176 616 193T591 246Q591 255 592 262T595 274Q590 265 581 249T555 216T514 188T455 176Q396 176 359 216T321 327Q321 367 335 409T375 486T437 542T519 564Q542 564 566 557T609 531Q622 519 627 507T635 485L653 549H722ZM607 436Q607 459 600 474T582 499T558 511T535 515Q505 515 481 496T439 447T412 384T402 322Q402 282 419 254T475 226Q511 226 536 253T576 315T599 385T607 436Z"  />
<glyph unicode="A" horiz-adv-x="722" d="M313 722H420L712 0H603L525 188H190L112 0H9L313 722ZM222 269H495L362 623L222 269Z"  />
<glyph unicode="B" horiz-adv-x="667" d="M95 722H353Q386 722 412 720T460 712T500 696T535 669Q558 646 572 615T586 540Q586 495 572 466T539 419T498 392T464 377Q480 372 504 363T552 335T591 282T608 197Q608 160 598 132T574 84T545 52T521 33Q483 8 442 4T358 0H95V722ZM192 417H332Q345 417 370 419T420 431T463 465T482 531Q482 572 467 594T430 626T382 638T336 640H192V417ZM192 81H363Q393 81 418 89T463 112T494 151T505 206Q505 260 469 295T367 331H192V81Z"  />
<glyph unicode="C" horiz-adv-x="667" d="M523 527Q521 536 516 557T496 599T450 636T367 652Q302 652 262 623T199 548T170 451T162 354Q162 303 170 253T202 162T264 96T366 71Q399 71 429 80T483 114Q503 135 509 156T518 190H628Q622 137 597 99T534 37T450 1T358 -11Q263 -11 204 26T111 118T67 237T55 353Q55 391 60 434T80 519T117 599T175 667T258 714T371 732Q409 732 452 723T534 691T598 628T630 527H523Z"  />
<glyph unicode="D" horiz-adv-x="722" d="M88 722H297Q333 722 372 721T449 710T522 682T588 628Q636 571 656 501T677 355Q677 296 666 249T638 165T599 102T557 59Q530 37 500 25T437 8T368 1T291 0H88V722ZM188 82H286Q338 82 388 88T475 122Q509 148 528 181T557 246T568 307T570 351Q570 361 569 387T561 445T540 513T500 576Q465 614 420 626T308 639H188V82Z"  />
<glyph unicode="E" horiz-adv-x="611" d="M76 722H529V637H176V412H512V328H176V88H537V0H76V722Z"  />
<glyph unicode="F" horiz-adv-x="556" d="M95 722H525V637H197V412H506V328H197V0H95V722Z"  />
<glyph unicode="G" horiz-adv-x="778" d="M577 542Q569 593 529 624T414 655Q363 655 322 641T251 594Q227 568 212 538T189 478T177 417T174 362Q174 339 177 310T187 249T207 189T240 135Q258 115 280 101T326 79T378 68T432 64Q494 64 533 73T589 87V301H424V384H689V28Q673 23 649 16T591 1T518 -11T432 -16Q332 -16 270 9T170 74Q116 128 93 200T69 349Q69 376 74 418T95 508T142 602T224 683Q251 701 280 711T337 726T388 733T425 734Q446 734 472 732T527 722T583 699T638 657Q654 640 663 624T677 593T683 565T686 542H577Z"  />
<glyph unicode="H" horiz-adv-x="722" d="M188 722V412H531V722H631V0H531V326H188V0H88V722H188Z"  />
<glyph unicode="I" horiz-adv-x="278" d="M88 722H188V0H88V722Z"  />
<glyph unicode="J" horiz-adv-x="556" d="M127 196Q128 177 130 156T143 117Q152 103 175 88T236 73Q267 73 293 85T336 124Q342 135 345 148T350 175T352 201T353 221V722H453V194Q453 144 435 106T386 42T315 3T229 -11Q215 -11 193 -9T147 2T100 24T57 64Q44 81 37 100T27 136T22 169T21 196H127Z"  />
<glyph unicode="K" horiz-adv-x="667" d="M93 722H192V406L493 722H630L307 399L665 0H525L192 383V0H93V722Z"  />
<glyph unicode="L" horiz-adv-x="556" d="M93 722H192V89H528V0H93V722Z"  />
<glyph unicode="M" horiz-adv-x="944" d="M90 722H267L471 127L680 722H845V0H747V650L510 0H415L187 646V0H90V722Z"  />
<glyph unicode="N" horiz-adv-x="778" d="M95 722H234L589 125V722H681V0H553L186 613V0H95V722Z"  />
<glyph unicode="O" horiz-adv-x="778" d="M59 356Q59 387 62 424T76 499T104 574T152 644Q180 674 212 693T275 722T337 737T393 741Q468 741 528 717T631 646T696 530T719 368Q719 296 703 227T649 104T546 16T385 -17Q293 -17 231 13T130 95T76 214T59 356ZM164 362Q164 302 177 242T228 134Q259 96 302 82T388 68Q433 68 474 82T548 134Q570 161 583 194T602 260T611 322T613 369Q613 430 602 483T566 574T498 635T394 657Q325 657 281 632T210 565T174 471T164 362Z"  />
<glyph unicode="P" horiz-adv-x="611" d="M88 722H330Q363 722 391 721T443 713T488 696T527 664Q554 636 567 601T580 524Q580 440 523 383Q509 369 492 358T449 338T389 326T305 321H188V0H88V722ZM188 405H307Q332 405 361 407T415 422T457 459T474 528Q474 570 459 593T421 626T373 639T328 641H188V405Z"  />
<glyph unicode="Q" horiz-adv-x="778" d="M754 0H634Q629 0 614 0T580 -1T539 -3T500 -5Q482 -7 463 -8T425 -11T393 -14T369 -15Q304 -15 248 7T149 74T83 190T58 356Q58 388 61 425T75 499T102 573T148 641Q194 692 257 715T390 739Q480 739 540 707T636 622T688 505T703 375Q703 349 700 311T684 231T645 145T572 65Q590 69 620 74T701 79H754V0ZM164 354Q164 309 173 258T207 164T272 92T379 63Q431 63 467 79T528 122T567 182T589 248T599 310T601 358Q601 498 544 577T381 656Q331 656 296 639T236 595T198 535T176 468T166 404T164 354Z"  />
<glyph unicode="R" horiz-adv-x="667" d="M86 722H344Q358 722 378 722T421 718T467 708T510 688Q551 662 570 624T590 541Q590 503 577 470T539 413Q516 390 494 381T454 366Q480 359 499 349T531 324T552 285T564 227Q568 195 571 167T580 112T591 58T609 0H502Q496 18 491 42T482 93T475 144T469 191Q464 230 456 256T431 297T385 319T311 326H185V0H86V722ZM183 411H341Q345 411 356 411T382 412T411 417T436 427Q441 430 449 436T466 454T479 482T485 521Q485 565 468 588T428 623T381 636T341 638H183V411Z"  />
<glyph unicode="S" horiz-adv-x="667" d="M160 211Q161 192 165 168T185 121T237 84T334 68Q390 68 423 83T474 119T497 161T503 197Q503 227 492 246T458 279T406 301T337 319Q296 329 266 337T212 352T172 366T141 383Q97 413 82 451T66 525Q66 580 90 620T152 685T240 723T341 736Q359 736 385 734T439 725T494 703T544 665Q559 648 567 631T580 598T586 568T588 542H484Q482 576 468 597T433 631T385 647T332 652Q257 652 215 621T172 535Q172 511 180 494T204 465T244 445T302 428Q366 411 405 401T467 384T505 369T535 352Q560 335 574 315T596 275T605 237T607 208Q607 160 589 119T534 48T445 0T322 -17Q301 -17 272 -15T211 -4T149 21T98 65Q83 85 75 105T62 145T57 181T56 211H160Z"  />
<glyph unicode="T" horiz-adv-x="611" d="M263 0V637H21V722H604V637H362V0H263Z"  />
<glyph unicode="U" horiz-adv-x="778" d="M193 722V275Q193 246 196 225T203 189T213 164T225 145Q242 122 263 109T306 87T349 77T390 74Q463 74 502 98T560 157T582 225T585 279V722H682V277Q682 262 681 241T675 194T657 140T623 85Q596 52 564 32T500 2T438 -12T390 -15Q364 -15 331 -11T262 6T194 41T135 100Q127 112 120 126T106 162T97 212T93 282V722H193Z"  />
<glyph unicode="V" horiz-adv-x="667" d="M381 0H271L14 722H125L330 105L546 722H647L381 0Z"  />
<glyph unicode="W" horiz-adv-x="1000" d="M115 722L271 128L443 722H567L730 123L894 722H992L778 0H667L500 617L321 0H213L8 722H115Z"  />
<glyph unicode="X" horiz-adv-x="722" d="M177 722L372 444L567 722H688L431 376L701 0H575L360 310L140 0H19L299 378L49 722H177Z"  />
<glyph unicode="Y" horiz-adv-x="667" d="M289 284L7 722H131L344 368L560 722H672L390 279V0H289V284Z"  />
<glyph unicode="Z" horiz-adv-x="611" d="M35 100L452 634H46V722H571V623L150 88H578V0H35V100Z"  />
<glyph unicode="[" horiz-adv-x="333" d="M102 750H275V697H181V-72H275V-125H102V750Z"  />
<glyph unicode="\" horiz-adv-x="278" d="M225 -16L-9 713H57L290 -16H225Z"  />
<glyph unicode="]" horiz-adv-x="333" d="M60 -72H155V697H60V750H234V-125H60V-72Z"  />
<glyph unicode="^" horiz-adv-x="584" d="M254 692H330L502 271H416L290 589L168 271H82L254 692Z"  />
<glyph unicode="_" horiz-adv-x="500" d="M0 -75H500V-125H0V-75Z"  />
<glyph unicode="`" horiz-adv-x="278" d="M115 740L199 596H137L2 740H115Z"  />
<glyph unicode="a" horiz-adv-x="556" d="M394 0Q389 19 387 37T385 75Q368 44 348 26T306 -1T266 -13T230 -16Q187 -16 154 -5T99 27T65 74T53 132Q53 147 56 166T69 204T96 243T141 279Q161 290 185 296T233 306T278 311T315 312Q333 312 347 312T383 309Q383 332 383 349T381 379T376 402T365 420Q351 439 325 446T278 453Q242 453 222 443T192 418T180 390T177 368H83Q85 388 90 412T118 463Q132 479 152 489T193 506T237 514T280 517Q307 517 334 513T386 499T429 476T458 443Q470 420 472 402T475 366L471 126Q471 123 471 110T472 79T474 40T479 0H394ZM383 244Q370 246 358 246T329 247Q315 247 285 246T225 235T171 204T148 145Q148 133 152 118T168 90T200 67T252 58Q324 58 359 112Q367 125 371 137T378 164T381 198T383 244Z"  />
<glyph unicode="b" horiz-adv-x="611" d="M182 429Q187 438 197 452T226 481T274 505T346 515Q384 515 427 503T505 451Q514 440 524 425T544 387T558 334T564 262Q564 189 550 147T516 79Q486 36 439 15T340 -7Q322 -7 291 -2T228 25Q207 39 197 52T179 76L177 0H86L88 90V722H182V429ZM465 256Q465 275 462 307T444 372T401 427T324 451Q288 451 264 439T223 407T198 363T185 317T181 277T180 251Q180 243 180 226T185 187T197 144T221 103T261 73T320 61Q363 61 391 80T436 128T458 191T465 256Z"  />
<glyph unicode="c" horiz-adv-x="500" d="M374 341Q373 350 370 367T357 402T328 433T274 446Q225 446 199 422T160 366T146 303T144 257Q144 218 149 183T169 119T207 75T269 58Q299 58 319 68T352 94T371 129T378 167H473Q471 130 457 98T416 41T353 2T270 -13Q257 -13 237 -11T195 -3T149 17T105 52Q94 65 83 82T64 122T50 175T45 244Q45 322 66 374T121 458T195 502T273 515Q285 515 304 513T345 505T388 486T427 453Q455 421 461 392T469 341H374Z"  />
<glyph unicode="d" horiz-adv-x="611" d="M436 721H530V80Q530 76 530 67T531 46T532 22T534 0H440L438 80Q432 69 423 55T393 27Q362 6 329 -2T269 -10Q244 -10 207 -1T136 35T78 112T53 245Q53 317 72 368T122 453T195 503T280 519Q320 519 348 509T394 484T421 456T436 434V721ZM439 258Q439 313 428 345T401 398Q386 418 359 433T291 449Q256 449 233 437T194 405T171 362T158 316T154 275T153 248Q153 215 158 181T179 119T221 74T291 56Q346 56 376 82T420 142T436 210T439 258Z"  />
<glyph unicode="e" horiz-adv-x="556" d="M145 234Q144 195 152 162T177 105T222 67T289 53Q335 53 368 78T407 157H501Q499 138 492 110T458 52Q450 43 436 31T401 9T352 -8T285 -15Q166 -15 109 54T52 242Q52 316 72 376T151 478Q169 491 188 498T226 509T261 514T288 515Q344 515 382 500T445 461T482 406T500 344T506 283T506 234H145ZM410 300Q410 318 407 343T392 392T354 431T286 448Q263 448 239 441T196 416T163 370T149 300H410Z"  />
<glyph unicode="f" horiz-adv-x="333" d="M339 652Q327 653 313 653T284 654Q255 654 240 648T218 631T209 607T208 581V502H325V434H208V0H115V434H16V502H115V559Q115 585 116 603T119 635T125 659T136 679Q152 703 182 718T262 734Q282 734 303 732T339 727V652Z"  />
<glyph unicode="g" horiz-adv-x="611" d="M178 -39Q179 -60 185 -78T204 -109T240 -129T295 -137Q344 -137 371 -120T410 -73T425 0T428 94Q413 63 390 46T342 21T296 11T263 9Q246 9 226 11T185 20T145 39T109 71Q77 109 65 157T52 256Q52 320 69 367T117 446T188 493T275 509Q313 509 339 501T384 481T414 456T433 433L434 502H525L523 411L522 97Q522 52 521 19T518 -38T510 -79T498 -111Q482 -141 457 -159T404 -186T345 -198T289 -201Q239 -201 204 -194T146 -174T110 -146T90 -111T81 -75T78 -39H178ZM287 79Q329 79 354 92T397 129Q404 139 410 150T421 177T428 216T431 273Q431 321 421 349T392 398Q373 418 345 430T284 442Q239 442 213 422T172 374T154 314T149 258Q149 229 154 198T175 140T217 96T287 79Z"  />
<glyph unicode="h" horiz-adv-x="611" d="M88 721H183V428Q206 468 249 489T346 511Q366 511 389 507T434 494T474 470T504 431Q508 423 511 415T516 393T519 360T521 314V0H425V297Q425 314 424 338T412 384T379 423T317 439Q291 439 271 432T237 415T213 393T199 372Q187 351 185 320T183 266V0H88V721Z"  />
<glyph unicode="i" horiz-adv-x="278" d="M79 720H192V617H79V720ZM89 502H183V0H89V502Z"  />
<glyph unicode="j" horiz-adv-x="278" d="M82 720H196V616H82V720ZM-1 -126Q27 -127 44 -125T72 -112T87 -84T91 -36V502H185V-47Q185 -65 183 -90T168 -140T130 -180T57 -197Q48 -197 34 -196T-1 -193V-126Z"  />
<glyph unicode="k" horiz-adv-x="500" d="M81 727H174V297L362 502H485L273 289L498 0H375L174 271V0H81V727Z"  />
<glyph unicode="l" horiz-adv-x="278" d="M90 721H184V0H90V721Z"  />
<glyph unicode="m" horiz-adv-x="944" d="M87 435L85 502H180V429Q198 459 219 476T261 501T303 512T339 515Q381 515 409 506T456 482T485 452T503 421Q509 431 521 447T552 478T601 504T672 515Q699 515 731 508T791 482T837 427T856 337V0H761V322Q761 355 756 371T744 398Q732 415 708 428T648 442Q625 442 608 436T577 422T555 405T541 389Q533 377 529 362T522 332T520 303T519 281V0H424V332Q424 379 397 410T314 442Q290 442 272 436T240 420T217 402T204 387Q188 365 185 337T182 285V0H87V435Z"  />
<glyph unicode="n" horiz-adv-x="611" d="M91 444L90 502H184L185 421Q189 429 198 444T226 474T274 500T346 512Q363 512 393 507T454 485T506 433T528 341V0H432V319Q432 344 427 366T405 405Q387 422 364 430T316 439Q290 439 267 430T225 402T196 355T185 289V0H91V444Z"  />
<glyph unicode="o" horiz-adv-x="611" d="M51 245Q51 291 63 339T104 426T183 490T306 515Q381 515 429 489T504 423T542 337T552 252Q552 197 537 148T490 63T410 5T298 -17Q236 -17 190 3T112 59T66 142T51 245ZM149 251Q149 212 157 177T184 114T231 70T300 53Q327 53 354 63T402 97T438 159T452 255Q452 349 412 397T306 446Q283 446 256 438T205 408T165 348T149 251Z"  />
<glyph unicode="p" horiz-adv-x="611" d="M85 420Q85 428 85 435T85 451T84 472T82 502H177L179 419Q197 449 220 466T267 494T313 507T350 510Q390 510 428 496T496 450T543 369T561 250Q561 180 542 129T492 45T419 -3T332 -19Q277 -19 238 2T178 56V-193H85V420ZM175 236Q175 213 178 181T196 120T238 71T316 50Q325 50 338 51T366 58T395 72T422 99Q435 117 443 139T456 182T461 223T463 256Q463 290 457 323T436 382T394 424T325 440Q269 440 239 415T194 355T178 287T175 236Z"  />
<glyph unicode="q" horiz-adv-x="611" d="M529 502Q529 494 529 483T528 460T527 438T527 420V-193H432V56Q426 47 417 36T391 13Q375 2 359 -4T327 -14T300 -18T278 -19Q232 -19 191 -3T118 47T68 132T49 253Q49 322 67 371T114 451T182 496T260 510Q298 510 326 501T375 478T409 448T431 419L434 502H529ZM435 241Q435 251 435 270T430 311T416 356T390 397T348 428T284 440Q233 440 206 417T165 364T150 304T147 259Q147 245 148 226T154 185T166 141T188 99Q205 75 233 63T296 50Q339 50 366 66T409 108T429 168T435 241Z"  />
<glyph unicode="r" horiz-adv-x="389" d="M93 400Q93 426 92 451T88 502H183L185 405Q192 431 205 449T236 478T271 496T305 504Q326 507 342 507T370 506V414Q364 416 352 418Q347 419 340 419T325 419Q283 419 257 408T215 376T194 327T188 267V0H93V400Z"  />
<glyph unicode="s" horiz-adv-x="500" d="M142 149Q142 135 146 119T162 90T196 67T252 58Q281 58 303 64T340 90Q356 111 356 137Q356 155 350 167T330 186T295 200T246 212Q207 221 172 231T110 257T69 298T53 362Q53 396 67 424T107 472T169 503T249 514Q273 514 300 510T352 497T398 473T430 436Q440 415 441 397T443 363H347Q348 391 338 407T313 432T280 443T250 445Q245 445 229 444T194 436T162 415T148 373Q148 356 155 345T174 326T197 316T219 309Q271 297 304 289T359 273T394 258T418 240Q439 220 447 196T456 147Q456 105 436 71T388 20Q355 0 317 -7T239 -14Q201 -14 166 -6T103 22T59 72T43 149H142Z"  />
<glyph unicode="t" horiz-adv-x="333" d="M11 504H100V609L193 639V504H305V435H193V134Q193 125 194 113T201 91T221 74T260 67Q274 67 286 68T305 72V-1Q292 -3 273 -5T227 -7Q162 -7 131 15T100 100V435H11V504Z"  />
<glyph unicode="u" horiz-adv-x="611" d="M174 502V179Q174 161 177 141T191 105T224 79T281 68Q316 68 347 81T399 124Q415 147 417 173T420 218V502H517V94Q517 90 517 79T518 54T519 25T520 0H422L420 86Q413 73 403 57T374 28T328 5T260 -5Q213 -5 179 7T123 42T89 96T78 165V502H174Z"  />
<glyph unicode="v" horiz-adv-x="556" d="M12 502H117L277 104L433 502H537L317 0H222L12 502Z"  />
<glyph unicode="w" horiz-adv-x="833" d="M115 502L236 102L363 502H486L600 106L726 502H823L646 0H538L420 413L289 0H178L12 502H115Z"  />
<glyph unicode="x" horiz-adv-x="556" d="M531 0H407L264 201L122 0H12L211 263L23 502H146L280 313L420 502H531L335 257L531 0Z"  />
<glyph unicode="y" horiz-adv-x="556" d="M314 -3L242 -190H145L221 2L12 502H118L275 106L435 502H537L314 -3Z"  />
<glyph unicode="z" horiz-adv-x="444" d="M30 97L298 431H44V502H405V422L128 73H405V0H30V97Z"  />
<glyph unicode="{" horiz-adv-x="334" d="M-1 338Q10 339 38 345T91 370Q121 392 126 421T131 487V514Q131 554 134 594T156 668T217 723T335 750V699Q289 695 264 679T228 638T214 586T212 532V506Q212 478 210 447T196 388T156 340T79 313Q128 307 155 287T195 240T210 181T212 119V88Q212 63 214 36T227 -14T264 -54T335 -74V-125Q262 -121 221 -101T160 -50T136 20T131 104V138Q131 162 129 186T115 230T75 266T-1 287V338Z"  />
<glyph unicode="|" horiz-adv-x="260" d="M172 750V-250H89V750H172Z"  />
<glyph unicode="}" horiz-adv-x="334" d="M335 287Q324 286 296 280T243 255Q213 233 208 204T203 138V111Q203 71 200 31T178 -43T117 -98T-1 -125V-74Q45 -70 70 -54T106 -13T120 39T122 93V119Q122 147 124 178T138 237T178 285T255 313Q205 319 179 339T139 386T124 444T122 506V537Q122 562 120 589T107 639T70 679T-1 699V750Q72 745 113 725T174 675T198 604T203 521V487Q203 463 205 439T219 395T258 359T335 338V287Z"  />
<glyph unicode="~" horiz-adv-x="584" d="M27 174Q32 206 39 231T67 281Q88 306 111 315T159 325Q172 325 182 324T207 319T244 308T304 289Q337 278 357 271T391 261T412 256T430 255Q452 255 473 270T503 328H557Q552 279 536 250T500 204T460 183T424 178Q409 178 389 182T346 192T302 206T263 219Q233 229 216 235T187 244T169 248T155 249Q145 249 134 245T112 232T93 209T82 174H27Z"  />
<glyph unicode="&#xA0;" horiz-adv-x="278" />
<glyph unicode="&#xA1;" horiz-adv-x="389" d="M134 502H240V402H134V502ZM221 337L238 -220H127L148 337H221Z"  />
<glyph unicode="&#xA2;" horiz-adv-x="556" d="M402 341Q400 353 396 373T374 413L274 60Q281 58 285 58T296 57Q343 57 373 85T406 167H501Q499 130 485 98T444 41T381 2T296 -13Q293 -13 281 -13T255 -10L216 -146H167L209 2Q165 18 138 47T97 110T77 180T72 244Q72 301 87 354T140 448Q168 477 209 496T302 515Q321 515 332 514T353 510L387 630H435L397 495Q411 489 428 478T460 448T485 403T497 341H402ZM333 440Q328 442 320 444T298 446Q243 446 208 402Q194 384 183 353T172 260Q172 238 174 212T182 161T200 113T230 78L333 440Z"  />
<glyph unicode="&#xA3;" horiz-adv-x="556" d="M32 347V414H108Q106 450 106 490T116 569Q118 579 128 603T161 653T225 698T330 718Q351 718 374 716T420 706T466 685T508 652Q532 626 536 599T540 556H442Q441 598 412 626T332 654Q312 654 284 646T234 612Q223 598 217 585T208 555T205 514T204 456V414H345V347H204V67H523V0H39V68H106V347H32Z"  />
<glyph unicode="&#xA4;" horiz-adv-x="556" d="M105 222Q100 229 94 240T81 266T70 302T65 346Q65 414 105 471L40 536L89 585L154 520Q171 531 200 545T279 559Q324 559 354 545T403 519L467 584L516 535L451 470Q471 443 481 412T491 346Q491 322 487 302T476 267T462 240T451 223L516 157L467 108L402 173Q374 154 343 144T279 133Q210 133 155 173L89 108L40 157L105 222ZM278 485Q249 485 224 474T180 445T150 401T139 346Q139 317 150 292T179 248T223 218T278 207Q307 207 332 218T376 247T406 291T417 346Q417 375 406 400T376 444T332 474T278 485Z"  />
<glyph unicode="&#xA5;" horiz-adv-x="556" d="M44 225H227V280H44V342H198L0 722H124L282 368L443 722H556L360 342H511V280H328V225H511V164H328V0H227V164H44V225Z"  />
<glyph unicode="&#xA6;" horiz-adv-x="260" d="M172 675V325H89V675H172ZM172 175V-175H89V175H172Z"  />
<glyph unicode="&#xA7;" horiz-adv-x="556" d="M111 86Q125 79 159 67T244 54Q279 54 299 64T329 87T341 112T344 130Q344 147 337 159T319 179T293 193T265 204L197 225Q185 229 168 236T134 255T107 288T95 341Q95 374 108 397T138 435T174 458T204 471Q166 482 138 510T110 586Q110 654 159 689T290 725Q311 725 342 722T409 708V630Q382 641 356 649T298 658Q287 658 271 656T241 647T217 627T207 592Q207 575 212 565T225 547T245 536T269 527L332 506Q345 502 362 495T396 475T423 440T434 387Q434 335 407 304T332 259Q345 255 364 248T400 226T430 189T443 131Q443 99 430 71T390 23T325 -9T236 -21Q203 -21 173 -16T111 0V86ZM266 282Q275 285 289 291T317 308T341 333T351 370Q351 389 344 401T324 422T295 437T263 448Q251 443 237 437T211 420T191 396T182 360Q182 340 191 327T213 304T240 290T266 282Z"  />
<glyph unicode="&#xA8;" horiz-adv-x="278" d="M-3 719H89V617H-3V719ZM186 719H279V617H186V719Z"  />
<glyph unicode="&#xA9;" horiz-adv-x="822" d="M507 462Q506 468 503 480T491 505T463 527T414 537Q375 537 352 520T315 476T298 418T293 360Q293 330 298 300T316 246T353 207T414 192Q434 192 451 197T483 217Q495 230 499 242T504 262H570Q567 230 552 208T514 171T464 150T409 143Q352 143 317 165T263 220T236 290T229 359Q229 393 237 432T266 506T323 562T417 585Q439 585 465 580T513 560T552 523T571 462H507ZM411 741Q489 741 558 712T678 631T759 511T789 363Q789 283 759 214T678 94T557 13T411 -17Q334 -17 266 12T146 93T64 214T33 363Q33 442 63 511T146 631T266 711T411 741ZM411 696Q343 696 283 670T177 598T105 493T78 363Q78 292 104 231T176 125T282 53T411 27Q480 27 540 53T646 125T718 232T744 363Q744 430 719 490T648 596T542 669T411 696Z"  />
<glyph unicode="&#xAA;" horiz-adv-x="334" d="M244 431Q242 436 240 447T238 476Q234 470 228 461T209 442T180 427T136 421Q113 421 93 426T57 443T32 471T23 511Q23 543 38 563T77 596T130 613T189 618Q192 618 198 618T212 618T227 617T237 616Q237 635 236 651T229 678T209 696T170 702Q146 702 133 696T113 682T105 665T103 652H42Q42 658 43 667T49 686T62 705T85 723Q96 729 116 735T170 741Q209 741 242 730T288 693Q294 679 295 669T296 650L294 507Q294 504 294 483T299 431H244ZM237 577Q227 578 202 579T151 576T104 558T84 518Q84 511 87 502T97 485T118 472T152 466Q172 466 185 471T208 484T221 498T227 507Q233 521 234 537T237 577Z"  />
<glyph unicode="&#xAB;" horiz-adv-x="556" d="M194 53L83 249L194 443H273L176 249L274 53H194ZM390 53L279 249L390 443H469L372 249L470 53H390Z"  />
<glyph unicode="&#xAC;" horiz-adv-x="584" d="M37 391H547V111H467V314H37V391Z"  />
<glyph unicode="&#xAD;" horiz-adv-x="333" d="M42 301H293V225H42V301Z"  />
<glyph unicode="&#xAE;" horiz-adv-x="411" d="M136 655H208Q214 655 225 654T248 649T268 634T277 604Q277 602 277 596T273 582T261 567T239 555Q255 551 261 543T270 516Q272 497 274 482T282 452H253Q250 462 248 471T243 505Q241 528 233 536T199 544H164V452H136V655ZM164 568H208Q213 568 220 568T233 572T243 581T248 599Q248 611 244 617T234 627T221 630T208 631H164V568ZM205 741Q244 741 278 726T338 686T379 626T394 552Q394 512 379 478T338 418T278 377T205 362Q167 362 133 377T72 417T31 477T16 552Q16 592 31 626T73 686T133 726T205 741ZM205 719Q171 719 141 706T88 670T52 617T39 552Q39 517 52 486T87 433T140 397T205 384Q239 384 269 397T323 433T359 486T372 552Q372 586 359 616T324 669T271 705T205 719Z"  />
<glyph unicode="&#xAF;" horiz-adv-x="278" d="M0 695H275V642H0V695Z"  />
<glyph unicode="&#xB0;" horiz-adv-x="400" d="M200 706Q232 706 260 694T310 661T343 612T356 550Q356 518 344 490T311 440T262 407T200 394Q168 394 140 406T90 440T57 489T44 550Q44 583 56 611T90 661T139 694T200 706ZM200 637Q182 637 167 631T139 612T120 584T113 550Q113 514 138 489T200 463Q218 463 234 470T262 489T280 516T287 550Q287 586 262 611T200 637Z"  />
<glyph unicode="&#xB1;" horiz-adv-x="584" d="M250 270H37V347H250V515H334V347H547V270H334V104H250V270ZM37 64H547V-13H37V64Z"  />
<glyph unicode="&#xB2;" horiz-adv-x="360" d="M32 338L151 445Q184 474 203 495T234 533T248 563T252 591Q252 623 232 640T179 658Q153 658 140 649T119 627T111 603T109 586H36Q38 626 54 649T91 685T136 702T177 706Q240 706 281 677T322 586Q322 567 313 544T272 483Q267 477 255 465T230 441T205 417T187 400L109 331H323V284H32V338Z"  />
<glyph unicode="&#xB3;" horiz-adv-x="360" d="M90 390Q90 357 113 340T175 322Q221 322 242 345T263 397Q263 427 248 443T211 465T169 472T136 472V521Q143 520 162 520T203 527T240 549T256 593Q256 613 249 626T229 646T203 656T177 659Q142 659 120 641T95 593H24Q25 627 40 649T77 683T126 701T175 706Q214 706 243 697T290 672T318 636T327 594Q327 581 323 567T308 538T279 513T232 497Q270 492 290 477T320 444T331 413T333 396Q333 371 323 349T291 310T240 283T169 273Q103 273 62 300T17 390H90Z"  />
<glyph unicode="&#xB4;" horiz-adv-x="278" d="M266 740L145 596H80L162 740H266Z"  />
<glyph unicode="&#xB5;" horiz-adv-x="611" d="M89 502H169V260Q169 243 169 224T172 185T179 147T192 114Q202 96 215 85T243 68T270 60T293 58Q320 58 350 71T402 121Q417 147 422 182T427 262V502H508V0H434V70Q427 60 416 46T388 20T348 -2T291 -11Q262 -11 242 -5T208 12T185 33T169 52V-209H89V502Z"  />
<glyph unicode="&#xB6;" horiz-adv-x="537" d="M472 658V-168H394V658H277V-168H198V264Q139 268 100 290T38 343T5 412T-5 486Q-5 522 6 563T47 640T127 699T254 722H526V658H472Z"  />
<glyph unicode="&#xB7;" horiz-adv-x="278" d="M81 352H192V231H81V352Z"  />
<glyph unicode="&#xB8;" horiz-adv-x="278" d="M42 -157Q50 -162 65 -166T109 -171Q162 -171 162 -131Q162 -118 157 -110T143 -98T126 -93T111 -92Q100 -92 93 -94T75 -100L60 -83L123 5H165L120 -58Q128 -56 137 -55T160 -53Q182 -53 197 -60T221 -77T234 -100T238 -124Q238 -127 236 -141T223 -172T186 -201T116 -214Q80 -214 60 -208T22 -194L42 -157Z"  />
<glyph unicode="&#xB9;" horiz-adv-x="360" d="M172 284V634Q136 607 109 593T67 573V634Q93 646 118 660T176 699H239V284H172Z"  />
<glyph unicode="&#xBA;" horiz-adv-x="367" d="M208 740Q259 740 290 724T340 683T364 631T370 581Q370 546 359 517T327 466T276 432T207 420Q163 420 132 433T82 469T53 519T44 578Q44 609 53 638T82 690T133 726T208 740ZM206 463Q224 463 241 469T273 490T296 527T305 583Q305 602 301 622T287 659T258 687T209 698Q182 698 163 688T132 661T114 624T108 582Q108 563 112 542T128 504T158 475T206 463Z"  />
<glyph unicode="&#xBB;" horiz-adv-x="556" d="M161 443L272 248L161 53H82L179 248L81 443H161ZM356 443L468 248L356 53H278L375 248L277 443H356Z"  />
<glyph unicode="&#xBC;" horiz-adv-x="834" d="M137 284V634Q101 607 74 593T32 573V634Q58 646 83 660T141 699H204V284H137ZM567 715H631L202 -28H137L567 715ZM670 90H468V161L662 421H737V140H793V90H737V0H670V90ZM672 140V358L515 140H672Z"  />
<glyph unicode="&#xBD;" horiz-adv-x="834" d="M130 284V634Q94 607 67 593T25 573V634Q51 646 76 660T134 699H197V284H130ZM560 715H624L195 -28H130L560 715ZM497 54L616 161Q649 190 668 211T699 249T713 279T717 307Q717 339 697 356T644 374Q618 374 605 365T584 343T576 319T574 302H501Q503 342 519 365T556 401T601 418T642 422Q705 422 746 393T787 302Q787 283 778 260T737 199Q732 193 720 181T695 157T670 133T652 116L574 47H788V0H497V54Z"  />
<glyph unicode="&#xBE;" horiz-adv-x="834" d="M95 390Q95 357 118 340T180 322Q226 322 247 345T268 397Q268 427 253 443T216 465T174 472T141 472V521Q148 520 167 520T208 527T245 549T261 593Q261 613 254 626T234 646T208 656T182 659Q147 659 125 641T100 593H29Q30 627 45 649T82 683T131 701T180 706Q219 706 248 697T295 672T323 636T332 594Q332 581 328 567T313 538T284 513T237 497Q275 492 295 477T325 444T336 413T338 396Q338 371 328 349T296 310T245 283T174 273Q108 273 67 300T22 390H95ZM627 715H691L262 -28H197L627 715ZM690 90H488V161L682 421H757V140H813V90H757V0H690V90ZM692 140V358L535 140H692Z"  />
<glyph unicode="&#xBF;" horiz-adv-x="500" d="M438 -213Q419 -218 385 -226T296 -234Q233 -234 186 -219T109 -172Q87 -149 76 -118T64 -55Q64 -26 71 -3T93 42T130 89T185 144Q187 146 196 155T214 174T232 193T241 201Q246 209 247 216T249 232V338H332V233Q332 218 331 208T326 188T310 166T280 132Q251 101 230 78T195 34T174 -6T167 -47Q167 -85 184 -106T225 -137T270 -149T302 -151Q313 -151 349 -148T438 -123V-213ZM340 400H236V502H340V400Z"  />
<glyph unicode="&#xC0;" horiz-adv-x="722" d="M313 722H420L712 0H603L525 188H190L112 0H9L313 722ZM222 269H495L362 623L222 269ZM337 930L421 786H359L224 930H337Z"  />
<glyph unicode="&#xC1;" horiz-adv-x="722" d="M313 722H420L712 0H603L525 188H190L112 0H9L313 722ZM222 269H495L362 623L222 269ZM488 930L367 786H302L384 930H488Z"  />
<glyph unicode="&#xC2;" horiz-adv-x="722" d="M313 722H420L712 0H603L525 188H190L112 0H9L313 722ZM222 269H495L362 623L222 269ZM209 786L315 931H405L509 786H423L357 882L286 786H209Z"  />
<glyph unicode="&#xC3;" horiz-adv-x="722" d="M313 722H420L712 0H603L525 188H190L112 0H9L313 722ZM222 269H495L362 623L222 269ZM220 802Q221 845 244 872Q266 900 305 900Q311 900 316 900T328 898T348 893T382 883Q393 880 401 878T419 876Q456 876 456 913H497Q498 884 490 865T470 834T442 817T413 812Q399 812 386 815T350 825Q335 829 320 833T300 838Q289 838 279 831T262 802H220Z"  />
<glyph unicode="&#xC4;" horiz-adv-x="722" d="M313 722H420L712 0H603L525 188H190L112 0H9L313 722ZM222 269H495L362 623L222 269ZM219 900H311V798H219V900ZM408 900H501V798H408V900Z"  />
<glyph unicode="&#xC5;" horiz-adv-x="722" d="M313 722H420L712 0H603L525 188H190L112 0H9L313 722ZM222 269H495L362 623L222 269ZM263 850Q263 892 291 920T361 948Q403 948 431 920T459 850Q459 808 431 780T361 752Q319 752 291 780T263 850ZM303 850Q303 826 320 809T361 792Q385 792 402 809T419 850Q419 874 402 891T361 908Q337 908 320 891T303 850Z"  />
<glyph unicode="&#xC6;" horiz-adv-x="1000" d="M227 201L112 0H2L423 722H943V637H572L610 414H929V329H625L667 86H954V0H581L547 201H227ZM532 282L475 648L273 282H532Z"  />
<glyph unicode="&#xC7;" horiz-adv-x="667" d="M628 190Q623 139 600 102T542 41T466 5T381 -11L347 -58Q355 -56 364 -55T386 -53Q408 -53 423 -60T447 -77T461 -100T465 -124Q465 -127 463 -141T449 -172T412 -201T342 -214Q306 -214 286 -208T248 -194L268 -157Q276 -162 292 -166T335 -171Q361 -171 375 -161T389 -131Q389 -118 384 -110T370 -98T353 -93T338 -92Q327 -92 319 -94T301 -100L286 -83L338 -11Q256 -7 202 27T115 114T69 229T55 353Q55 391 60 433T79 518T116 599T174 667T258 714T371 732Q409 732 452 723T534 691T598 628T630 527H523Q521 536 516 557T496 599T450 636T367 652Q302 652 262 623T199 548T170 451T162 354Q162 303 170 253T202 162T264 96T366 71Q399 71 429 80T483 114Q503 135 509 156T518 190H628Z"  />
<glyph unicode="&#xC8;" horiz-adv-x="617" d="M76 722H529V637H176V412H512V328H176V88H537V0H76V722ZM296 930L380 786H318L183 930H296Z"  />
<glyph unicode="&#xC9;" horiz-adv-x="617" d="M76 722H529V637H176V412H512V328H176V88H537V0H76V722ZM447 930L326 786H261L343 930H447Z"  />
<glyph unicode="&#xCA;" horiz-adv-x="617" d="M76 722H529V637H176V412H512V328H176V88H537V0H76V722ZM168 786L274 931H364L468 786H382L316 882L245 786H168Z"  />
<glyph unicode="&#xCB;" horiz-adv-x="617" d="M76 722H529V637H176V412H512V328H176V88H537V0H76V722ZM178 900H270V798H178V900ZM367 900H460V798H367V900Z"  />
<glyph unicode="&#xCC;" horiz-adv-x="278" d="M88 722H188V0H88V722ZM115 930L199 786H137L2 930H115Z"  />
<glyph unicode="&#xCD;" horiz-adv-x="278" d="M88 722H188V0H88V722ZM266 930L145 786H80L162 930H266Z"  />
<glyph unicode="&#xCE;" horiz-adv-x="278" d="M88 722H188V0H88V722ZM-13 786L93 931H183L287 786H201L135 882L64 786H-13Z"  />
<glyph unicode="&#xCF;" horiz-adv-x="278" d="M88 722H188V0H88V722ZM-3 900H89V798H-3V900ZM186 900H279V798H186V900Z"  />
<glyph unicode="&#xD0;" horiz-adv-x="722" d="M88 369H18V430H88V722H297Q333 722 372 721T449 710T522 682T588 628Q636 571 656 501T677 355Q677 296 666 249T638 165T599 102T557 59Q530 37 500 25T437 8T368 1T291 0H88V369ZM188 82H286Q338 82 388 88T475 122Q509 148 528 181T557 246T568 307T570 351Q570 361 569 387T561 445T540 513T500 576Q465 614 420 626T308 639H188V430H380V369H188V82Z"  />
<glyph unicode="&#xD1;" horiz-adv-x="766" d="M95 722H234L589 125V722H681V0H553L186 613V0H95V722ZM243 802Q244 845 267 872Q289 900 328 900Q334 900 339 900T351 898T371 893T405 883Q416 880 424 878T442 876Q479 876 479 913H520Q521 884 513 865T493 834T465 817T436 812Q422 812 409 815T373 825Q358 829 343 833T323 838Q312 838 302 831T285 802H243Z"  />
<glyph unicode="&#xD2;" horiz-adv-x="778" d="M59 356Q59 387 62 424T76 499T104 574T152 644Q180 674 212 693T275 722T337 737T393 741Q468 741 528 717T631 646T696 530T719 368Q719 296 703 227T649 104T546 16T385 -17Q293 -17 231 13T130 95T76 214T59 356ZM164 362Q164 302 177 242T228 134Q259 96 302 82T388 68Q433 68 474 82T548 134Q570 161 583 194T602 260T611 322T613 369Q613 430 602 483T566 574T498 635T394 657Q325 657 281 632T210 565T174 471T164 362ZM365 930L449 786H387L252 930H365Z"  />
<glyph unicode="&#xD3;" horiz-adv-x="778" d="M59 356Q59 387 62 424T76 499T104 574T152 644Q180 674 212 693T275 722T337 737T393 741Q468 741 528 717T631 646T696 530T719 368Q719 296 703 227T649 104T546 16T385 -17Q293 -17 231 13T130 95T76 214T59 356ZM164 362Q164 302 177 242T228 134Q259 96 302 82T388 68Q433 68 474 82T548 134Q570 161 583 194T602 260T611 322T613 369Q613 430 602 483T566 574T498 635T394 657Q325 657 281 632T210 565T174 471T164 362ZM516 930L395 786H330L412 930H516Z"  />
<glyph unicode="&#xD4;" horiz-adv-x="778" d="M59 356Q59 387 62 424T76 499T104 574T152 644Q180 674 212 693T275 722T337 737T393 741Q468 741 528 717T631 646T696 530T719 368Q719 296 703 227T649 104T546 16T385 -17Q293 -17 231 13T130 95T76 214T59 356ZM164 362Q164 302 177 242T228 134Q259 96 302 82T388 68Q433 68 474 82T548 134Q570 161 583 194T602 260T611 322T613 369Q613 430 602 483T566 574T498 635T394 657Q325 657 281 632T210 565T174 471T164 362ZM237 786L343 931H433L537 786H451L385 882L314 786H237Z"  />
<glyph unicode="&#xD5;" horiz-adv-x="778" d="M59 356Q59 387 62 424T76 499T104 574T152 644Q180 674 212 693T275 722T337 737T393 741Q468 741 528 717T631 646T696 530T719 368Q719 296 703 227T649 104T546 16T385 -17Q293 -17 231 13T130 95T76 214T59 356ZM164 362Q164 302 177 242T228 134Q259 96 302 82T388 68Q433 68 474 82T548 134Q570 161 583 194T602 260T611 322T613 369Q613 430 602 483T566 574T498 635T394 657Q325 657 281 632T210 565T174 471T164 362ZM248 802Q249 845 272 872Q294 900 333 900Q339 900 344 900T356 898T376 893T410 883Q421 880 429 878T447 876Q484 876 484 913H525Q526 884 518 865T498 834T470 817T441 812Q427 812 414 815T378 825Q363 829 348 833T328 838Q317 838 307 831T290 802H248Z"  />
<glyph unicode="&#xD6;" horiz-adv-x="778" d="M59 356Q59 387 62 424T76 499T104 574T152 644Q180 674 212 693T275 722T337 737T393 741Q468 741 528 717T631 646T696 530T719 368Q719 296 703 227T649 104T546 16T385 -17Q293 -17 231 13T130 95T76 214T59 356ZM164 362Q164 302 177 242T228 134Q259 96 302 82T388 68Q433 68 474 82T548 134Q570 161 583 194T602 260T611 322T613 369Q613 430 602 483T566 574T498 635T394 657Q325 657 281 632T210 565T174 471T164 362ZM247 900H339V798H247V900ZM436 900H529V798H436V900Z"  />
<glyph unicode="&#xD7;" horiz-adv-x="584" d="M233 251L47 437L104 494L290 309L476 494L534 437L348 251L533 65L476 8L290 194L104 8L47 65L233 251Z"  />
<glyph unicode="&#xD8;" horiz-adv-x="778" d="M700 799L614 663Q645 634 665 599T698 524T714 444T719 363Q719 323 713 279T693 193T655 112T594 46T506 0T388 -17Q351 -17 323 -13T273 -2T235 12T205 27L131 -88H68L163 59Q151 71 133 92T99 148T71 234T59 358Q59 389 62 427T76 504T106 581T157 651Q203 698 264 719T391 741Q428 741 457 736T508 724T545 709T571 695L638 799H700ZM523 619Q517 624 507 630T481 643T443 653T391 657Q323 657 279 631T210 563T174 468T164 361Q164 304 175 249T219 147L523 619ZM256 107Q284 84 319 76T389 68Q458 68 501 94T569 164T603 260T613 367Q613 424 602 478T559 579L256 107Z"  />
<glyph unicode="&#xD9;" horiz-adv-x="763" d="M193 722V275Q193 246 196 225T203 189T213 164T225 145Q242 122 263 109T306 87T349 77T390 74Q463 74 502 98T560 157T582 225T585 279V722H682V277Q682 262 681 241T675 194T657 140T623 85Q596 52 564 32T500 2T438 -12T390 -15Q364 -15 331 -11T262 6T194 41T135 100Q127 112 120 126T106 162T97 212T93 282V722H193ZM359 930L443 786H381L246 930H359Z"  />
<glyph unicode="&#xDA;" horiz-adv-x="763" d="M193 722V275Q193 246 196 225T203 189T213 164T225 145Q242 122 263 109T306 87T349 77T390 74Q463 74 502 98T560 157T582 225T585 279V722H682V277Q682 262 681 241T675 194T657 140T623 85Q596 52 564 32T500 2T438 -12T390 -15Q364 -15 331 -11T262 6T194 41T135 100Q127 112 120 126T106 162T97 212T93 282V722H193ZM510 930L389 786H324L406 930H510Z"  />
<glyph unicode="&#xDB;" horiz-adv-x="763" d="M193 722V275Q193 246 196 225T203 189T213 164T225 145Q242 122 263 109T306 87T349 77T390 74Q463 74 502 98T560 157T582 225T585 279V722H682V277Q682 262 681 241T675 194T657 140T623 85Q596 52 564 32T500 2T438 -12T390 -15Q364 -15 331 -11T262 6T194 41T135 100Q127 112 120 126T106 162T97 212T93 282V722H193ZM231 786L337 931H427L531 786H445L379 882L308 786H231Z"  />
<glyph unicode="&#xDC;" horiz-adv-x="763" d="M193 722V275Q193 246 196 225T203 189T213 164T225 145Q242 122 263 109T306 87T349 77T390 74Q463 74 502 98T560 157T582 225T585 279V722H682V277Q682 262 681 241T675 194T657 140T623 85Q596 52 564 32T500 2T438 -12T390 -15Q364 -15 331 -11T262 6T194 41T135 100Q127 112 120 126T106 162T97 212T93 282V722H193ZM241 900H333V798H241V900ZM430 900H523V798H430V900Z"  />
<glyph unicode="&#xDD;" horiz-adv-x="667" d="M289 284L7 722H131L344 368L560 722H672L390 279V0H289V284ZM489 930L368 786H303L385 930H489Z"  />
<glyph unicode="&#xDE;" horiz-adv-x="611" d="M188 719V601H330Q370 601 400 599T453 589T493 571T527 543Q554 515 567 480T580 403Q580 319 523 262Q509 248 492 237T450 217T390 205T305 200H188V0H88V719H188ZM188 284H307Q332 284 361 286T415 301T457 338T474 407Q474 449 459 472T421 505T373 518T328 520H188V284Z"  />
<glyph unicode="&#xDF;" horiz-adv-x="667" d="M90 528Q90 559 95 595T124 662T193 714T319 735Q355 735 392 728T460 704T511 659T531 586Q531 549 517 527T477 485Q456 469 443 459T422 440T411 423T408 404Q408 390 415 380T434 361L521 304Q571 272 591 241T611 166Q611 124 595 92T552 37T490 3T415 -9Q394 -9 372 -6T328 7T290 31T263 71Q254 94 253 111T251 144H343Q342 102 365 82T424 61Q452 61 469 70T497 93T512 123T516 151Q516 171 510 185T495 211T473 231T448 248L388 285Q350 308 331 333T312 391Q312 412 318 428T336 459T363 485T395 510Q415 525 427 538T439 579Q439 598 432 614T410 643T372 663T315 671Q244 671 214 638T184 525V0H90V528Z"  />
<glyph unicode="&#xE0;" horiz-adv-x="556" d="M394 0Q389 19 387 37T385 75Q368 44 348 26T306 -1T266 -13T230 -16Q187 -16 154 -5T99 27T65 74T53 132Q53 147 56 166T69 204T96 243T141 279Q161 290 185 296T233 306T278 311T315 312Q333 312 347 312T383 309Q383 332 383 349T381 379T376 402T365 420Q351 439 325 446T278 453Q242 453 222 443T192 418T180 390T177 368H83Q85 388 90 412T118 463Q132 479 152 489T193 506T237 514T280 517Q307 517 334 513T386 499T429 476T458 443Q470 420 472 402T475 366L471 126Q471 123 471 110T472 79T474 40T479 0H394ZM383 244Q370 246 358 246T329 247Q315 247 285 246T225 235T171 204T148 145Q148 133 152 118T168 90T200 67T252 58Q324 58 359 112Q367 125 371 137T378 164T381 198T383 244ZM254 740L338 596H276L141 740H254Z"  />
<glyph unicode="&#xE1;" horiz-adv-x="556" d="M394 0Q389 19 387 37T385 75Q368 44 348 26T306 -1T266 -13T230 -16Q187 -16 154 -5T99 27T65 74T53 132Q53 147 56 166T69 204T96 243T141 279Q161 290 185 296T233 306T278 311T315 312Q333 312 347 312T383 309Q383 332 383 349T381 379T376 402T365 420Q351 439 325 446T278 453Q242 453 222 443T192 418T180 390T177 368H83Q85 388 90 412T118 463Q132 479 152 489T193 506T237 514T280 517Q307 517 334 513T386 499T429 476T458 443Q470 420 472 402T475 366L471 126Q471 123 471 110T472 79T474 40T479 0H394ZM383 244Q370 246 358 246T329 247Q315 247 285 246T225 235T171 204T148 145Q148 133 152 118T168 90T200 67T252 58Q324 58 359 112Q367 125 371 137T378 164T381 198T383 244ZM405 740L284 596H219L301 740H405Z"  />
<glyph unicode="&#xE2;" horiz-adv-x="556" d="M394 0Q389 19 387 37T385 75Q368 44 348 26T306 -1T266 -13T230 -16Q187 -16 154 -5T99 27T65 74T53 132Q53 147 56 166T69 204T96 243T141 279Q161 290 185 296T233 306T278 311T315 312Q333 312 347 312T383 309Q383 332 383 349T381 379T376 402T365 420Q351 439 325 446T278 453Q242 453 222 443T192 418T180 390T177 368H83Q85 388 90 412T118 463Q132 479 152 489T193 506T237 514T280 517Q307 517 334 513T386 499T429 476T458 443Q470 420 472 402T475 366L471 126Q471 123 471 110T472 79T474 40T479 0H394ZM383 244Q370 246 358 246T329 247Q315 247 285 246T225 235T171 204T148 145Q148 133 152 118T168 90T200 67T252 58Q324 58 359 112Q367 125 371 137T378 164T381 198T383 244ZM126 596L232 741H322L426 596H340L274 692L203 596H126Z"  />
<glyph unicode="&#xE3;" horiz-adv-x="556" d="M394 0Q389 19 387 37T385 75Q368 44 348 26T306 -1T266 -13T230 -16Q187 -16 154 -5T99 27T65 74T53 132Q53 147 56 166T69 204T96 243T141 279Q161 290 185 296T233 306T278 311T315 312Q333 312 347 312T383 309Q383 332 383 349T381 379T376 402T365 420Q351 439 325 446T278 453Q242 453 222 443T192 418T180 390T177 368H83Q85 388 90 412T118 463Q132 479 152 489T193 506T237 514T280 517Q307 517 334 513T386 499T429 476T458 443Q470 420 472 402T475 366L471 126Q471 123 471 110T472 79T474 40T479 0H394ZM383 244Q370 246 358 246T329 247Q315 247 285 246T225 235T171 204T148 145Q148 133 152 118T168 90T200 67T252 58Q324 58 359 112Q367 125 371 137T378 164T381 198T383 244ZM137 612Q139 655 161 682Q184 710 222 710Q228 710 233 710T245 707T265 702T299 693Q310 690 318 688T336 686Q354 686 363 696T373 723H414Q415 694 407 675T387 644T359 627T330 622Q316 622 303 625T267 635Q252 639 237 643T217 648Q206 648 196 641T179 612H137Z"  />
<glyph unicode="&#xE4;" horiz-adv-x="556" d="M394 0Q389 19 387 37T385 75Q368 44 348 26T306 -1T266 -13T230 -16Q187 -16 154 -5T99 27T65 74T53 132Q53 147 56 166T69 204T96 243T141 279Q161 290 185 296T233 306T278 311T315 312Q333 312 347 312T383 309Q383 332 383 349T381 379T376 402T365 420Q351 439 325 446T278 453Q242 453 222 443T192 418T180 390T177 368H83Q85 388 90 412T118 463Q132 479 152 489T193 506T237 514T280 517Q307 517 334 513T386 499T429 476T458 443Q470 420 472 402T475 366L471 126Q471 123 471 110T472 79T474 40T479 0H394ZM383 244Q370 246 358 246T329 247Q315 247 285 246T225 235T171 204T148 145Q148 133 152 118T168 90T200 67T252 58Q324 58 359 112Q367 125 371 137T378 164T381 198T383 244ZM156 719H248V617H156V719ZM345 719H438V617H345V719Z"  />
<glyph unicode="&#xE5;" horiz-adv-x="556" d="M394 0Q389 19 387 37T385 75Q368 44 348 26T306 -1T266 -13T230 -16Q187 -16 154 -5T99 27T65 74T53 132Q53 147 56 166T69 204T96 243T141 279Q161 290 185 296T233 306T278 311T315 312Q333 312 347 312T383 309Q383 332 383 349T381 379T376 402T365 420Q351 439 325 446T278 453Q242 453 222 443T192 418T180 390T177 368H83Q85 388 90 412T118 463Q132 479 152 489T193 506T237 514T280 517Q307 517 334 513T386 499T429 476T458 443Q470 420 472 402T475 366L471 126Q471 123 471 110T472 79T474 40T479 0H394ZM383 244Q370 246 358 246T329 247Q315 247 285 246T225 235T171 204T148 145Q148 133 152 118T168 90T200 67T252 58Q324 58 359 112Q367 125 371 137T378 164T381 198T383 244ZM180 669Q180 711 208 739T278 767Q320 767 348 739T376 669Q376 627 348 599T278 571Q236 571 208 599T180 669ZM220 669Q220 645 237 628T278 611Q302 611 319 628T336 669Q336 693 319 710T278 727Q254 727 237 710T220 669Z"  />
<glyph unicode="&#xE6;" horiz-adv-x="889" d="M830 155Q822 99 799 66T746 15T686 -8T633 -14Q625 -14 601 -12T548 1T491 36T444 104Q439 92 429 73T397 34T340 1T249 -13Q193 -13 155 1T93 39T60 89T50 144Q50 170 59 195T86 241T133 278T202 300Q237 305 273 306T334 308Q351 308 368 308T400 307Q400 328 398 352T383 398T347 433T279 447Q262 447 244 444T210 432T183 408T171 369H78Q79 378 80 391T88 420T105 450T137 479Q155 491 187 502T274 514Q322 514 354 504T406 479T437 445T453 410Q471 449 498 470T551 502T599 513T626 515Q645 515 670 511T720 494T769 462T808 409Q826 372 829 327T833 237H486Q487 215 490 182T510 121Q529 86 560 70T623 54Q654 54 675 64T709 89T728 122T734 155H830ZM736 304Q736 319 734 340T723 381Q721 385 715 396T697 417T667 436T621 445Q586 445 559 430T514 391Q498 369 494 346T488 304H736ZM400 241Q392 241 379 241T349 241T315 241T281 240Q270 239 247 237T201 225T160 196T142 142Q142 118 152 101T179 74T216 59T256 54Q304 54 332 75T375 118Q394 147 397 180T400 241Z"  />
<glyph unicode="&#xE7;" horiz-adv-x="500" d="M473 167Q471 132 458 101T421 45T363 6T286 -12L253 -58Q261 -56 270 -55T292 -53Q314 -53 329 -60T353 -77T367 -100T371 -124Q371 -127 369 -141T356 -172T319 -201T248 -214Q213 -214 193 -208T155 -194L174 -157Q183 -162 198 -166T241 -171Q267 -171 281 -161T295 -131Q295 -118 290 -110T276 -98T259 -93T244 -92Q233 -92 226 -94T208 -100L193 -83L244 -12Q185 -5 147 18T86 76T54 153T45 240Q45 324 67 377T124 461T198 503T273 515Q285 515 304 513T345 505T388 486T427 453Q455 421 461 392T469 341H374Q373 350 370 367T357 402T328 433T274 446Q225 446 199 422T160 366T146 303T144 257Q144 218 149 183T169 119T207 75T269 58Q299 58 319 68T352 94T371 129T378 167H473Z"  />
<glyph unicode="&#xE8;" horiz-adv-x="556" d="M145 234Q144 195 152 162T177 105T222 67T289 53Q335 53 368 78T407 157H501Q499 138 492 110T458 52Q450 43 436 31T401 9T352 -8T285 -15Q166 -15 109 54T52 242Q52 316 72 376T151 478Q169 491 188 498T226 509T261 514T288 515Q344 515 382 500T445 461T482 406T500 344T506 283T506 234H145ZM410 300Q410 318 407 343T392 392T354 431T286 448Q263 448 239 441T196 416T163 370T149 300H410ZM254 740L338 596H276L141 740H254Z"  />
<glyph unicode="&#xE9;" horiz-adv-x="556" d="M145 234Q144 195 152 162T177 105T222 67T289 53Q335 53 368 78T407 157H501Q499 138 492 110T458 52Q450 43 436 31T401 9T352 -8T285 -15Q166 -15 109 54T52 242Q52 316 72 376T151 478Q169 491 188 498T226 509T261 514T288 515Q344 515 382 500T445 461T482 406T500 344T506 283T506 234H145ZM410 300Q410 318 407 343T392 392T354 431T286 448Q263 448 239 441T196 416T163 370T149 300H410ZM405 740L284 596H219L301 740H405Z"  />
<glyph unicode="&#xEA;" horiz-adv-x="556" d="M145 234Q144 195 152 162T177 105T222 67T289 53Q335 53 368 78T407 157H501Q499 138 492 110T458 52Q450 43 436 31T401 9T352 -8T285 -15Q166 -15 109 54T52 242Q52 316 72 376T151 478Q169 491 188 498T226 509T261 514T288 515Q344 515 382 500T445 461T482 406T500 344T506 283T506 234H145ZM410 300Q410 318 407 343T392 392T354 431T286 448Q263 448 239 441T196 416T163 370T149 300H410ZM126 596L232 741H322L426 596H340L274 692L203 596H126Z"  />
<glyph unicode="&#xEB;" horiz-adv-x="556" d="M145 234Q144 195 152 162T177 105T222 67T289 53Q335 53 368 78T407 157H501Q499 138 492 110T458 52Q450 43 436 31T401 9T352 -8T285 -15Q166 -15 109 54T52 242Q52 316 72 376T151 478Q169 491 188 498T226 509T261 514T288 515Q344 515 382 500T445 461T482 406T500 344T506 283T506 234H145ZM410 300Q410 318 407 343T392 392T354 431T286 448Q263 448 239 441T196 416T163 370T149 300H410ZM136 719H228V617H136V719ZM325 719H418V617H325V719Z"  />
<glyph unicode="&#xEC;" horiz-adv-x="278" d="M93 502H183V0H93V502ZM115 740L199 596H137L2 740H115Z"  />
<glyph unicode="&#xED;" horiz-adv-x="278" d="M93 502H183V0H93V502ZM266 740L145 596H80L162 740H266Z"  />
<glyph unicode="&#xEE;" horiz-adv-x="278" d="M93 502H183V0H93V502ZM-13 596L93 741H183L287 596H201L135 692L64 596H-13Z"  />
<glyph unicode="&#xEF;" horiz-adv-x="278" d="M93 502H183V0H93V502ZM-3 719H89V617H-3V719ZM186 719H279V617H186V719Z"  />
<glyph unicode="&#xF0;" horiz-adv-x="611" d="M210 650Q193 661 181 668T159 681T141 691T126 699L188 758Q201 751 211 746T232 733T256 718T289 697L388 755L424 719L334 667Q364 644 402 611T475 531T534 419T558 271Q558 206 542 153T493 62T412 4T302 -17Q249 -17 204 -1T126 47T73 129T54 244Q54 316 75 366T131 447T206 492T288 506Q322 506 347 499T390 480T419 457T439 435Q411 485 367 529T256 620L160 563L124 598L210 650ZM307 54Q330 54 356 63T405 94T443 155T458 251Q458 344 419 393T310 443Q277 443 249 431T199 395T167 335T155 249Q155 210 164 175T192 112T239 70T307 54Z"  />
<glyph unicode="&#xF1;" horiz-adv-x="611" d="M91 444L90 502H184L185 421Q189 429 198 444T226 474T274 500T346 512Q363 512 393 507T454 485T506 433T528 341V0H432V319Q432 344 427 366T405 405Q387 422 364 430T316 439Q290 439 267 430T225 402T196 355T185 289V0H91V444ZM165 612Q167 655 189 682Q212 710 250 710Q256 710 261 710T273 707T293 702T327 693Q338 690 346 688T364 686Q382 686 391 696T401 723H442Q443 694 435 675T415 644T387 627T358 622Q344 622 331 625T295 635Q280 639 265 643T245 648Q234 648 224 641T207 612H165Z"  />
<glyph unicode="&#xF2;" horiz-adv-x="611" d="M51 245Q51 291 63 339T104 426T183 490T306 515Q381 515 429 489T504 423T542 337T552 252Q552 197 537 148T490 63T410 5T298 -17Q236 -17 190 3T112 59T66 142T51 245ZM149 251Q149 212 157 177T184 114T231 70T300 53Q327 53 354 63T402 97T438 159T452 255Q452 349 412 397T306 446Q283 446 256 438T205 408T165 348T149 251ZM282 740L366 596H304L169 740H282Z"  />
<glyph unicode="&#xF3;" horiz-adv-x="611" d="M51 245Q51 291 63 339T104 426T183 490T306 515Q381 515 429 489T504 423T542 337T552 252Q552 197 537 148T490 63T410 5T298 -17Q236 -17 190 3T112 59T66 142T51 245ZM149 251Q149 212 157 177T184 114T231 70T300 53Q327 53 354 63T402 97T438 159T452 255Q452 349 412 397T306 446Q283 446 256 438T205 408T165 348T149 251ZM433 740L312 596H247L329 740H433Z"  />
<glyph unicode="&#xF4;" horiz-adv-x="611" d="M51 245Q51 291 63 339T104 426T183 490T306 515Q381 515 429 489T504 423T542 337T552 252Q552 197 537 148T490 63T410 5T298 -17Q236 -17 190 3T112 59T66 142T51 245ZM149 251Q149 212 157 177T184 114T231 70T300 53Q327 53 354 63T402 97T438 159T452 255Q452 349 412 397T306 446Q283 446 256 438T205 408T165 348T149 251ZM154 596L260 741H350L454 596H368L302 692L231 596H154Z"  />
<glyph unicode="&#xF5;" horiz-adv-x="611" d="M51 245Q51 291 63 339T104 426T183 490T306 515Q381 515 429 489T504 423T542 337T552 252Q552 197 537 148T490 63T410 5T298 -17Q236 -17 190 3T112 59T66 142T51 245ZM149 251Q149 212 157 177T184 114T231 70T300 53Q327 53 354 63T402 97T438 159T452 255Q452 349 412 397T306 446Q283 446 256 438T205 408T165 348T149 251ZM165 612Q167 655 189 682Q212 710 250 710Q256 710 261 710T273 707T293 702T327 693Q338 690 346 688T364 686Q382 686 391 696T401 723H442Q443 694 435 675T415 644T387 627T358 622Q344 622 331 625T295 635Q280 639 265 643T245 648Q234 648 224 641T207 612H165Z"  />
<glyph unicode="&#xF6;" horiz-adv-x="611" d="M51 245Q51 291 63 339T104 426T183 490T306 515Q381 515 429 489T504 423T542 337T552 252Q552 197 537 148T490 63T410 5T298 -17Q236 -17 190 3T112 59T66 142T51 245ZM149 251Q149 212 157 177T184 114T231 70T300 53Q327 53 354 63T402 97T438 159T452 255Q452 349 412 397T306 446Q283 446 256 438T205 408T165 348T149 251ZM164 719H256V617H164V719ZM353 719H446V617H353V719Z"  />
<glyph unicode="&#xF7;" horiz-adv-x="584" d="M37 290H547V212H37V290ZM242 129H342V10H242V129ZM242 492H342V373H242V492Z"  />
<glyph unicode="&#xF8;" horiz-adv-x="611" d="M537 597L460 468Q488 446 506 419T534 364T548 307T552 251Q552 196 536 148T489 63T410 5T298 -17Q231 -17 185 5L120 -104H61L141 31Q132 39 117 54T87 94T62 157T51 248Q51 303 66 351T113 436T190 494T299 515Q360 515 416 494L477 597H537ZM377 428Q341 446 303 446Q262 446 233 429T185 385T158 322T149 252Q149 219 157 179T187 109L377 428ZM225 73Q233 68 251 61T300 53Q330 53 357 65T406 101T439 162T452 250Q452 288 445 325T415 393L225 73Z"  />
<glyph unicode="&#xF9;" horiz-adv-x="611" d="M174 502V179Q174 161 177 141T191 105T224 79T281 68Q316 68 347 81T399 124Q415 147 417 173T420 218V502H517V94Q517 90 517 79T518 54T519 25T520 0H422L420 86Q413 73 403 57T374 28T328 5T260 -5Q213 -5 179 7T123 42T89 96T78 165V502H174ZM282 740L366 596H304L169 740H282Z"  />
<glyph unicode="&#xFA;" horiz-adv-x="611" d="M174 502V179Q174 161 177 141T191 105T224 79T281 68Q316 68 347 81T399 124Q415 147 417 173T420 218V502H517V94Q517 90 517 79T518 54T519 25T520 0H422L420 86Q413 73 403 57T374 28T328 5T260 -5Q213 -5 179 7T123 42T89 96T78 165V502H174ZM433 740L312 596H247L329 740H433Z"  />
<glyph unicode="&#xFB;" horiz-adv-x="611" d="M174 502V179Q174 161 177 141T191 105T224 79T281 68Q316 68 347 81T399 124Q415 147 417 173T420 218V502H517V94Q517 90 517 79T518 54T519 25T520 0H422L420 86Q413 73 403 57T374 28T328 5T260 -5Q213 -5 179 7T123 42T89 96T78 165V502H174ZM154 596L260 741H350L454 596H368L302 692L231 596H154Z"  />
<glyph unicode="&#xFC;" horiz-adv-x="611" d="M174 502V179Q174 161 177 141T191 105T224 79T281 68Q316 68 347 81T399 124Q415 147 417 173T420 218V502H517V94Q517 90 517 79T518 54T519 25T520 0H422L420 86Q413 73 403 57T374 28T328 5T260 -5Q213 -5 179 7T123 42T89 96T78 165V502H174ZM164 719H256V617H164V719ZM353 719H446V617H353V719Z"  />
<glyph unicode="&#xFD;" horiz-adv-x="556" d="M314 -3L242 -190H145L221 2L12 502H118L275 106L435 502H537L314 -3ZM405 740L284 596H219L301 740H405Z"  />
<glyph unicode="&#xFE;" horiz-adv-x="611" d="M85 721H179V419Q197 449 220 466T267 494T313 507T350 510Q390 510 428 496T496 450T543 369T561 250Q561 180 542 129T492 45T419 -3T332 -19Q277 -19 238 2T178 56V-193H85V721ZM175 236Q175 213 178 181T196 120T238 71T316 50Q325 50 338 51T366 58T395 72T422 99Q435 117 443 139T456 182T461 223T463 256Q463 290 457 323T436 382T394 424T325 440Q269 440 239 415T194 355T178 287T175 236Z"  />
<glyph unicode="&#xFF;" horiz-adv-x="556" d="M314 -3L242 -190H145L221 2L12 502H118L275 106L435 502H537L314 -3ZM136 719H228V617H136V719ZM325 719H418V617H325V719Z"  />
<glyph unicode="&#x100;" horiz-adv-x="722" d="M313 722H420L712 0H603L525 188H190L112 0H9L313 722ZM222 269H495L362 623L222 269ZM231 885H506V832H231V885Z"  />
<glyph unicode="&#x101;" horiz-adv-x="556" d="M394 0Q389 19 387 37T385 75Q368 44 348 26T306 -1T266 -13T230 -16Q187 -16 154 -5T99 27T65 74T53 132Q53 147 56 166T69 204T96 243T141 279Q161 290 185 296T233 306T278 311T315 312Q333 312 347 312T383 309Q383 332 383 349T381 379T376 402T365 420Q351 439 325 446T278 453Q242 453 222 443T192 418T180 390T177 368H83Q85 388 90 412T118 463Q132 479 152 489T193 506T237 514T280 517Q307 517 334 513T386 499T429 476T458 443Q470 420 472 402T475 366L471 126Q471 123 471 110T472 79T474 40T479 0H394ZM383 244Q370 246 358 246T329 247Q315 247 285 246T225 235T171 204T148 145Q148 133 152 118T168 90T200 67T252 58Q324 58 359 112Q367 125 371 137T378 164T381 198T383 244ZM151 695H426V642H151V695Z"  />
<glyph unicode="&#x102;" horiz-adv-x="722" d="M313 722H420L712 0H603L525 188H190L112 0H9L313 722ZM222 269H495L362 623L222 269ZM274 941Q276 898 296 873T362 847Q393 847 411 859T439 887T451 918T454 941H501Q503 863 468 824T362 784Q312 784 285 803T244 848T229 900T227 941H274Z"  />
<glyph unicode="&#x103;" horiz-adv-x="556" d="M394 0Q389 19 387 37T385 75Q368 44 348 26T306 -1T266 -13T230 -16Q187 -16 154 -5T99 27T65 74T53 132Q53 147 56 166T69 204T96 243T141 279Q161 290 185 296T233 306T278 311T315 312Q333 312 347 312T383 309Q383 332 383 349T381 379T376 402T365 420Q351 439 325 446T278 453Q242 453 222 443T192 418T180 390T177 368H83Q85 388 90 412T118 463Q132 479 152 489T193 506T237 514T280 517Q307 517 334 513T386 499T429 476T458 443Q470 420 472 402T475 366L471 126Q471 123 471 110T472 79T474 40T479 0H394ZM383 244Q370 246 358 246T329 247Q315 247 285 246T225 235T171 204T148 145Q148 133 152 118T168 90T200 67T252 58Q324 58 359 112Q367 125 371 137T378 164T381 198T383 244ZM198 751Q200 708 220 683T286 657Q317 657 335 669T363 697T375 728T378 751H425Q427 673 392 634T286 594Q236 594 209 613T168 658T153 710T151 751H198Z"  />
<glyph unicode="&#x104;" horiz-adv-x="722" d="M673 -173Q655 -182 634 -190T579 -198Q552 -198 534 -191T505 -173T490 -149T485 -124Q485 -83 519 -53T603 0L525 188H190L112 0H9L313 722H420L712 0H644Q629 -10 615 -20T590 -41T571 -65T564 -94Q564 -113 573 -123T593 -137T614 -143T628 -144Q645 -144 655 -141T673 -132V-173ZM222 269H495L362 623L222 269Z"  />
<glyph unicode="&#x105;" horiz-adv-x="556" d="M485 -173Q467 -182 446 -190T391 -198Q364 -198 346 -191T317 -173T302 -149T297 -124Q297 -82 331 -52T415 0H394Q389 19 387 37T385 75Q368 44 348 26T306 -1T266 -13T230 -16Q187 -16 154 -5T99 27T65 74T53 132Q53 147 56 166T69 205T96 244T141 279Q161 290 185 296T233 306T278 311T315 312Q333 312 347 312T383 309Q383 355 381 379T365 420Q351 439 325 446T278 453Q242 453 222 443T192 418T180 390T177 368H83Q85 388 90 412T118 463Q132 479 152 489T193 506T237 514T280 517Q307 517 334 513T386 499T429 476T458 443Q470 420 472 402T475 366L471 126Q471 123 471 110T472 79T474 40T479 0H456Q441 -10 427 -20T402 -41T383 -65T376 -94Q376 -113 385 -123T405 -137T426 -143T440 -144Q457 -144 467 -141T485 -132V-173ZM383 244Q370 246 358 246T329 247Q315 247 285 246T225 235T171 204T148 145Q148 133 152 118T168 90T200 67T252 58Q324 58 359 112Q367 125 371 137T377 164T381 198T383 244Z"  />
<glyph unicode="&#x106;" horiz-adv-x="667" d="M523 527Q521 536 516 557T496 599T450 636T367 652Q302 652 262 623T199 548T170 451T162 354Q162 303 170 253T202 162T264 96T366 71Q399 71 429 80T483 114Q503 135 509 156T518 190H628Q622 137 597 99T534 37T450 1T358 -11Q263 -11 204 26T111 118T67 237T55 353Q55 391 60 434T80 519T117 599T175 667T258 714T371 732Q409 732 452 723T534 691T598 628T630 527H523ZM502 930L381 786H316L398 930H502Z"  />
<glyph unicode="&#x107;" horiz-adv-x="500" d="M374 341Q373 350 370 367T357 402T328 433T274 446Q225 446 199 422T160 366T146 303T144 257Q144 218 149 183T169 119T207 75T269 58Q299 58 319 68T352 94T371 129T378 167H473Q471 130 457 98T416 41T353 2T270 -13Q257 -13 237 -11T195 -3T149 17T105 52Q94 65 83 82T64 122T50 175T45 244Q45 322 66 374T121 458T195 502T273 515Q285 515 304 513T345 505T388 486T427 453Q455 421 461 392T469 341H374ZM411 740L290 596H225L307 740H411Z"  />
<glyph unicode="&#x108;" horiz-adv-x="667" d="M523 527Q521 536 516 557T496 599T450 636T367 652Q302 652 262 623T199 548T170 451T162 354Q162 303 170 253T202 162T264 96T366 71Q399 71 429 80T483 114Q503 135 509 156T518 190H628Q622 137 597 99T534 37T450 1T358 -11Q263 -11 204 26T111 118T67 237T55 353Q55 391 60 434T80 519T117 599T175 667T258 714T371 732Q409 732 452 723T534 691T598 628T630 527H523ZM218 786L324 931H414L518 786H432L366 882L295 786H218Z"  />
<glyph unicode="&#x109;" horiz-adv-x="500" d="M374 341Q373 350 370 367T357 402T328 433T274 446Q225 446 199 422T160 366T146 303T144 257Q144 218 149 183T169 119T207 75T269 58Q299 58 319 68T352 94T371 129T378 167H473Q471 130 457 98T416 41T353 2T270 -13Q257 -13 237 -11T195 -3T149 17T105 52Q94 65 83 82T64 122T50 175T45 244Q45 322 66 374T121 458T195 502T273 515Q285 515 304 513T345 505T388 486T427 453Q455 421 461 392T469 341H374ZM122 596L228 741H318L422 596H336L270 692L199 596H122Z"  />
<glyph unicode="&#x10A;" horiz-adv-x="667" d="M523 527Q521 536 516 557T496 599T450 636T367 652Q302 652 262 623T199 548T170 451T162 354Q162 303 170 253T202 162T264 96T366 71Q399 71 429 80T483 114Q503 135 509 156T518 190H628Q622 137 597 99T534 37T450 1T358 -11Q263 -11 204 26T111 118T67 237T55 353Q55 391 60 434T80 519T117 599T175 667T258 714T371 732Q409 732 452 723T534 691T598 628T630 527H523ZM324 909H416V807H324V909Z"  />
<glyph unicode="&#x10B;" horiz-adv-x="500" d="M374 341Q373 350 370 367T357 402T328 433T274 446Q225 446 199 422T160 366T146 303T144 257Q144 218 149 183T169 119T207 75T269 58Q299 58 319 68T352 94T371 129T378 167H473Q471 130 457 98T416 41T353 2T270 -13Q257 -13 237 -11T195 -3T149 17T105 52Q94 65 83 82T64 122T50 175T45 244Q45 322 66 374T121 458T195 502T273 515Q285 515 304 513T345 505T388 486T427 453Q455 421 461 392T469 341H374ZM235 719H327V617H235V719Z"  />
<glyph unicode="&#x10C;" horiz-adv-x="667" d="M523 527Q521 536 516 557T496 599T450 636T367 652Q302 652 262 623T199 548T170 451T162 354Q162 303 170 253T202 162T264 96T366 71Q399 71 429 80T483 114Q503 135 509 156T518 190H628Q622 137 597 99T534 37T450 1T358 -11Q263 -11 204 26T111 118T67 237T55 353Q55 391 60 434T80 519T117 599T175 667T258 714T371 732Q409 732 452 723T534 691T598 628T630 527H523ZM214 929H300L367 833L436 929H515L411 786H318L214 929Z"  />
<glyph unicode="&#x10D;" horiz-adv-x="500" d="M374 341Q373 350 370 367T357 402T328 433T274 446Q225 446 199 422T160 366T146 303T144 257Q144 218 149 183T169 119T207 75T269 58Q299 58 319 68T352 94T371 129T378 167H473Q471 130 457 98T416 41T353 2T270 -13Q257 -13 237 -11T195 -3T149 17T105 52Q94 65 83 82T64 122T50 175T45 244Q45 322 66 374T121 458T195 502T273 515Q285 515 304 513T345 505T388 486T427 453Q455 421 461 392T469 341H374ZM127 739H213L280 643L349 739H428L324 596H231L127 739Z"  />
<glyph unicode="&#x10E;" horiz-adv-x="722" d="M88 722H297Q333 722 372 721T449 710T522 682T588 628Q636 571 656 501T677 355Q677 296 666 249T638 165T599 102T557 59Q530 37 500 25T437 8T368 1T291 0H88V722ZM188 82H286Q338 82 388 88T475 122Q509 148 528 181T557 246T568 307T570 351Q570 361 569 387T561 445T540 513T500 576Q465 614 420 626T308 639H188V82ZM169 929H255L322 833L391 929H470L366 786H273L169 929Z"  />
<glyph unicode="&#x10F;" horiz-adv-x="611" d="M436 721H530V80Q530 76 530 67T531 46T532 22T534 0H440L438 80Q432 69 423 55T393 27Q362 6 329 -2T269 -10Q244 -10 207 -1T136 35T78 112T53 245Q53 317 72 368T122 453T195 503T280 519Q320 519 348 509T394 484T421 456T436 434V721ZM439 258Q439 313 428 345T401 398Q386 418 359 433T291 449Q256 449 233 437T194 405T171 362T158 316T154 275T153 248Q153 215 158 181T179 119T221 74T291 56Q346 56 376 82T420 142T436 210T439 258ZM718 722L643 563H592L632 722H718Z"  />
<glyph unicode="&#x110;" horiz-adv-x="722" d="M88 369H18V430H88V722H297Q333 722 372 721T449 710T522 682T588 628Q636 571 656 501T677 355Q677 297 666 250T638 165T599 102T557 59Q530 37 500 25T437 8T368 1T291 0H88V369ZM188 82H286Q338 82 388 88T475 122Q509 148 528 181T557 246T568 307T570 351Q570 361 569 387T561 445T540 512T500 576Q465 614 420 626T308 639H188V430H380V369H188V82Z"  />
<glyph unicode="&#x111;" horiz-adv-x="611" d="M316 624H436V721H530V624H591V581H530V80Q530 76 530 67T530 46T532 22T534 0H440L438 80Q432 69 423 55T393 27Q362 6 329 -2T269 -10Q244 -10 207 -1T136 35T78 112T53 245Q53 317 72 368T122 453T195 503T280 519Q320 519 348 509T394 484T421 456T436 434V581H316V624ZM439 258Q439 313 428 345T401 398Q386 418 359 433T291 449Q256 449 233 437T194 405T171 362T158 316T154 275T153 248Q153 215 158 181T179 119T221 74T291 56Q346 56 376 82T420 142T436 210T439 258Z"  />
<glyph unicode="&#x112;" horiz-adv-x="617" d="M76 722H529V637H176V412H512V328H176V88H537V0H76V722ZM181 885H456V832H181V885Z"  />
<glyph unicode="&#x113;" horiz-adv-x="556" d="M145 234Q144 195 152 162T177 105T222 67T289 53Q335 53 368 78T407 157H501Q499 138 492 110T458 52Q450 43 436 31T401 9T352 -8T285 -15Q166 -15 109 54T52 242Q52 316 72 376T151 478Q169 491 188 498T226 509T261 514T288 515Q344 515 382 500T445 461T482 406T500 344T506 283T506 234H145ZM410 300Q410 318 407 343T392 392T354 431T286 448Q263 448 239 441T196 416T163 370T149 300H410ZM151 695H426V642H151V695Z"  />
<glyph unicode="&#x114;" horiz-adv-x="617" d="M76 722H529V637H176V412H512V328H176V88H537V0H76V722ZM230 941Q232 898 252 873T318 847Q349 847 367 859T395 887T407 918T410 941H457Q459 863 424 824T318 784Q268 784 241 803T200 848T185 900T183 941H230Z"  />
<glyph unicode="&#x115;" horiz-adv-x="556" d="M145 234Q144 195 152 162T177 105T222 67T289 53Q335 53 368 78T407 157H501Q499 138 492 110T458 52Q450 43 436 31T401 9T352 -8T285 -15Q166 -15 109 54T52 242Q52 316 72 376T151 478Q169 491 188 498T226 509T261 514T288 515Q344 515 382 500T445 461T482 406T500 344T506 283T506 234H145ZM410 300Q410 318 407 343T392 392T354 431T286 448Q263 448 239 441T196 416T163 370T149 300H410ZM194 751Q196 708 216 683T282 657Q313 657 331 669T359 697T371 728T374 751H421Q423 673 388 634T282 594Q232 594 205 613T164 658T149 710T147 751H194Z"  />
<glyph unicode="&#x116;" horiz-adv-x="617" d="M76 722H529V637H176V412H512V328H176V88H537V0H76V722ZM282 909H374V807H282V909Z"  />
<glyph unicode="&#x117;" horiz-adv-x="556" d="M145 234Q144 195 152 162T177 105T222 67T289 53Q335 53 368 78T407 157H501Q499 138 492 110T458 52Q450 43 436 31T401 9T352 -8T285 -15Q166 -15 109 54T52 242Q52 316 72 376T151 478Q169 491 188 498T226 509T261 514T288 515Q344 515 382 500T445 461T482 406T500 344T506 283T506 234H145ZM410 300Q410 318 407 343T392 392T354 431T286 448Q263 448 239 441T196 416T163 370T149 300H410ZM248 719H340V617H248V719Z"  />
<glyph unicode="&#x118;" horiz-adv-x="617" d="M90 722H543V637H190V412H526V328H190V88H551V0H524Q509 -10 495 -20T470 -41T451 -65T444 -94Q444 -113 453 -123T473 -137T494 -143T508 -144Q525 -144 535 -141T553 -132V-173Q535 -182 514 -190T459 -198Q432 -198 414 -191T385 -173T370 -149T365 -124Q365 -82 399 -52T483 0H90V722Z"  />
<glyph unicode="&#x119;" horiz-adv-x="556" d="M396 -173Q378 -182 357 -190T302 -198Q275 -198 257 -191T228 -173T213 -149T208 -124Q208 -89 233 -62T296 -15H285Q166 -15 109 54T52 242Q52 316 72 376T151 478Q169 491 188 498T226 509T261 514T288 515Q345 515 383 500T445 461T482 406T500 344T505 283T506 234H145Q144 195 152 162T177 105T222 67T289 53Q335 53 368 78T407 157H501Q499 138 492 110T458 52Q446 38 423 21T357 -6Q330 -25 309 -45T287 -94Q287 -113 296 -123T316 -137T337 -143T351 -144Q368 -144 378 -141T396 -132V-173ZM410 300Q410 318 407 343T392 392T354 431T286 448Q263 448 239 441T196 416T163 370T149 300H410Z"  />
<glyph unicode="&#x11A;" horiz-adv-x="617" d="M76 722H529V637H176V412H512V328H176V88H537V0H76V722ZM172 929H258L325 833L394 929H473L369 786H276L172 929Z"  />
<glyph unicode="&#x11B;" horiz-adv-x="556" d="M145 234Q144 195 152 162T177 105T222 67T289 53Q335 53 368 78T407 157H501Q499 138 492 110T458 52Q450 43 436 31T401 9T352 -8T285 -15Q166 -15 109 54T52 242Q52 316 72 376T151 478Q169 491 188 498T226 509T261 514T288 515Q344 515 382 500T445 461T482 406T500 344T506 283T506 234H145ZM410 300Q410 318 407 343T392 392T354 431T286 448Q263 448 239 441T196 416T163 370T149 300H410ZM141 739H227L294 643L363 739H442L338 596H245L141 739Z"  />
<glyph unicode="&#x11C;" horiz-adv-x="778" d="M577 542Q569 593 529 624T414 655Q363 655 322 641T251 594Q227 568 212 538T189 478T177 417T174 362Q174 339 177 310T187 249T207 189T240 135Q258 115 280 101T326 79T378 68T432 64Q494 64 533 73T589 87V301H424V384H689V28Q673 23 649 16T591 1T518 -11T432 -16Q332 -16 270 9T170 74Q116 128 93 200T69 349Q69 376 74 418T95 508T142 602T224 683Q251 701 280 711T337 726T388 733T425 734Q446 734 472 732T527 722T583 699T638 657Q654 640 663 624T677 593T683 565T686 542H577ZM261 786L367 931H457L561 786H475L409 882L338 786H261Z"  />
<glyph unicode="&#x11D;" horiz-adv-x="611" d="M178 -39Q179 -60 185 -78T204 -109T240 -129T295 -137Q344 -137 371 -120T410 -73T425 0T428 94Q413 63 390 46T342 21T296 11T263 9Q246 9 226 11T185 20T145 39T109 71Q77 109 65 157T52 256Q52 320 69 367T117 446T188 493T275 509Q313 509 339 501T384 481T414 456T433 433L434 502H525L523 411L522 97Q522 52 521 19T518 -38T510 -79T498 -111Q482 -141 457 -159T404 -186T345 -198T289 -201Q239 -201 204 -194T146 -174T110 -146T90 -111T81 -75T78 -39H178ZM287 79Q329 79 354 92T397 129Q404 139 410 150T421 177T428 216T431 273Q431 321 421 349T392 398Q373 418 345 430T284 442Q239 442 213 422T172 374T154 314T149 258Q149 229 154 198T175 140T217 96T287 79ZM161 596L267 741H357L461 596H375L309 692L238 596H161Z"  />
<glyph unicode="&#x11E;" horiz-adv-x="778" d="M577 542Q569 593 529 624T414 655Q363 655 322 641T251 594Q227 568 212 538T189 478T177 417T174 362Q174 339 177 310T187 249T207 189T240 135Q258 115 280 101T326 79T378 68T432 64Q494 64 533 73T589 87V301H424V384H689V28Q673 23 649 16T591 1T518 -11T432 -16Q332 -16 270 9T170 74Q116 128 93 200T69 349Q69 376 74 418T95 508T142 602T224 683Q251 701 280 711T337 726T388 733T425 734Q446 734 472 732T527 722T583 699T638 657Q654 640 663 624T677 593T683 565T686 542H577ZM314 941Q316 898 336 873T402 847Q433 847 451 859T479 887T491 918T494 941H541Q543 863 508 824T402 784Q352 784 325 803T284 848T269 900T267 941H314Z"  />
<glyph unicode="&#x11F;" horiz-adv-x="611" d="M178 -39Q179 -60 185 -78T204 -109T240 -129T295 -137Q344 -137 371 -120T410 -73T425 0T428 94Q413 63 390 46T342 21T296 11T263 9Q246 9 226 11T185 20T145 39T109 71Q77 109 65 157T52 256Q52 320 69 367T117 446T188 493T275 509Q313 509 339 501T384 481T414 456T433 433L434 502H525L523 411L522 97Q522 52 521 19T518 -38T510 -79T498 -111Q482 -141 457 -159T404 -186T345 -198T289 -201Q239 -201 204 -194T146 -174T110 -146T90 -111T81 -75T78 -39H178ZM287 79Q329 79 354 92T397 129Q404 139 410 150T421 177T428 216T431 273Q431 321 421 349T392 398Q373 418 345 430T284 442Q239 442 213 422T172 374T154 314T149 258Q149 229 154 198T175 140T217 96T287 79ZM208 751Q210 708 230 683T296 657Q327 657 345 669T373 697T385 728T388 751H435Q437 673 402 634T296 594Q246 594 219 613T178 658T163 710T161 751H208Z"  />
<glyph unicode="&#x120;" horiz-adv-x="778" d="M577 542Q569 593 529 624T414 655Q363 655 322 641T251 594Q227 568 212 538T189 478T177 417T174 362Q174 339 177 310T187 249T207 189T240 135Q258 115 280 101T326 79T378 68T432 64Q494 64 533 73T589 87V301H424V384H689V28Q673 23 649 16T591 1T518 -11T432 -16Q332 -16 270 9T170 74Q116 128 93 200T69 349Q69 376 74 418T95 508T142 602T224 683Q251 701 280 711T337 726T388 733T425 734Q446 734 472 732T527 722T583 699T638 657Q654 640 663 624T677 593T683 565T686 542H577ZM367 909H459V807H367V909Z"  />
<glyph unicode="&#x121;" horiz-adv-x="611" d="M178 -39Q179 -60 185 -78T204 -109T240 -129T295 -137Q344 -137 371 -120T410 -73T425 0T428 94Q413 63 390 46T342 21T296 11T263 9Q246 9 226 11T185 20T145 39T109 71Q77 109 65 157T52 256Q52 320 69 367T117 446T188 493T275 509Q313 509 339 501T384 481T414 456T433 433L434 502H525L523 411L522 97Q522 52 521 19T518 -38T510 -79T498 -111Q482 -141 457 -159T404 -186T345 -198T289 -201Q239 -201 204 -194T146 -174T110 -146T90 -111T81 -75T78 -39H178ZM287 79Q329 79 354 92T397 129Q404 139 410 150T421 177T428 216T431 273Q431 321 421 349T392 398Q373 418 345 430T284 442Q239 442 213 422T172 374T154 314T149 258Q149 229 154 198T175 140T217 96T287 79ZM252 719H344V617H252V719Z"  />
<glyph unicode="&#x122;" horiz-adv-x="778" d="M577 542Q569 593 529 624T414 655Q363 655 322 641T251 594Q227 568 212 538T189 478T177 417T174 362Q174 339 177 310T187 249T207 189T240 135Q258 115 280 101T326 79T378 68T432 64Q494 64 533 73T589 87V301H424V384H689V28Q673 23 649 16T591 1T518 -11T432 -16Q332 -16 270 9T170 74Q116 128 93 200T69 349Q69 376 74 418T95 508T142 602T224 683Q251 701 280 711T337 726T388 733T425 734Q446 734 472 732T527 722T583 699T638 657Q654 640 663 624T677 593T683 565T686 542H577ZM467 -66L384 -242H334L380 -66H467Z"  />
<glyph unicode="&#x123;" horiz-adv-x="611" d="M178 -39Q179 -60 185 -78T204 -109T240 -129T295 -137Q344 -137 371 -120T410 -73T425 0T428 94Q413 63 390 46T342 21T296 11T263 9Q246 9 226 11T185 20T145 39T109 71Q77 109 65 157T52 256Q52 320 69 367T117 446T188 493T275 509Q313 509 339 501T384 481T414 456T433 433L434 502H525L523 411L522 97Q522 52 521 19T518 -38T510 -79T498 -111Q482 -141 457 -159T404 -186T345 -198T289 -201Q239 -201 204 -194T146 -174T110 -146T90 -111T81 -75T78 -39H178ZM287 79Q329 79 354 92T397 129Q404 139 410 150T421 177T428 216T431 273Q431 321 421 349T392 398Q373 418 345 430T284 442Q239 442 213 422T172 374T154 314T149 258Q149 229 154 198T175 140T217 96T287 79ZM234 596L317 772H367L321 596H234Z"  />
<glyph unicode="&#x124;" horiz-adv-x="722" d="M188 722V412H531V722H631V0H531V326H188V0H88V722H188ZM212 786L318 931H408L512 786H426L360 882L289 786H212Z"  />
<glyph unicode="&#x125;" horiz-adv-x="611" d="M88 721H183V428Q206 468 249 489T346 511Q366 511 389 507T434 494T474 470T504 431Q508 423 511 415T516 393T519 360T521 314V0H425V297Q425 314 424 338T412 384T379 423T317 439Q291 439 271 432T237 415T213 393T199 372Q187 351 185 320T183 266V0H88V721ZM17 761L123 906H213L317 761H231L165 857L94 761H17Z"  />
<glyph unicode="&#x126;" horiz-adv-x="722" d="M188 722V595H531V722H631V0H531V326H188V0H88V722H188ZM531 412V529H188V412H531Z"  />
<glyph unicode="&#x127;" horiz-adv-x="611" d="M14 624H88V721H183V624H289V581H183V428Q206 468 249 489T346 511Q366 511 389 507T434 494T474 470T504 431Q508 423 511 415T516 393T519 360T521 314V0H425V297Q425 313 424 337T412 384T379 423T317 439Q291 439 271 432T237 415T213 393T199 372Q187 351 185 320T183 266V0H88V581H14V624Z"  />
<glyph unicode="&#x128;" horiz-adv-x="278" d="M88 722H188V0H88V722ZM0 802Q1 845 24 872Q46 900 85 900Q91 900 96 900T108 898T128 893T162 883Q173 880 181 878T199 876Q236 876 236 913H277Q278 884 270 865T250 834T222 817T193 812Q179 812 166 815T130 825Q115 829 100 833T80 838Q69 838 59 831T42 802H0Z"  />
<glyph unicode="&#x129;" horiz-adv-x="278" d="M93 502H183V0H93V502ZM0 612Q2 655 24 682Q47 710 85 710Q91 710 96 710T108 707T128 702T162 693Q173 690 181 688T199 686Q217 686 226 696T236 723H277Q278 694 270 675T250 644T222 627T193 622Q179 622 166 625T130 635Q115 639 100 643T80 648Q69 648 59 641T42 612H0Z"  />
<glyph unicode="&#x12A;" horiz-adv-x="278" d="M88 722H188V0H88V722ZM0 885H275V832H0V885Z"  />
<glyph unicode="&#x12B;" horiz-adv-x="278" d="M93 502H183V0H93V502ZM22 695H297V642H22V695Z"  />
<glyph unicode="&#x12E;" horiz-adv-x="278" d="M88 722H188V0H159Q144 -10 130 -20T105 -41T86 -65T79 -94Q79 -113 88 -123T108 -137T129 -143T143 -144Q160 -144 170 -141T188 -132V-173Q170 -182 149 -190T94 -198Q67 -198 49 -191T20 -173T5 -149T0 -124Q0 -82 34 -52T118 0H88V722Z"  />
<glyph unicode="&#x12F;" horiz-adv-x="278" d="M93 502H187V0H177Q162 -10 148 -20T123 -41T104 -65T97 -94Q97 -113 106 -123T126 -137T147 -143T161 -144Q178 -144 188 -141T206 -132V-173Q188 -182 167 -190T112 -198Q85 -198 67 -191T38 -173T23 -149T18 -124Q18 -82 52 -52T136 0H93V502ZM83 720H196V617H83V720Z"  />
<glyph unicode="&#x130;" horiz-adv-x="278" d="M88 722H188V0H88V722ZM94 909H186V807H94V909Z"  />
<glyph unicode="&#x131;" horiz-adv-x="278" d="M93 502H183V0H93V502Z"  />
<glyph unicode="&#x132;" horiz-adv-x="802" d="M88 722H188V0H88V722ZM391 196Q392 177 394 156T407 117Q416 103 439 88T500 73Q531 73 557 85T600 124Q606 135 609 148T614 175T616 201T617 221V722H717V194Q717 144 699 106T650 42T579 3T493 -11Q479 -11 457 -9T411 2T364 24T321 64Q308 81 301 100T291 136T286 169T285 196H391Z"  />
<glyph unicode="&#x133;" horiz-adv-x="537" d="M76 720H189V617H76V720ZM86 502H180V0H86V502ZM341 720H455V616H341V720ZM258 -126Q286 -127 303 -125T331 -112T346 -84T350 -36V502H444V-47Q444 -65 442 -90T427 -140T389 -180T316 -197Q307 -197 293 -196T258 -193V-126Z"  />
<glyph unicode="&#x134;" horiz-adv-x="538" d="M127 196Q128 177 130 156T143 117Q152 103 175 88T236 73Q267 73 293 85T336 124Q342 135 345 148T350 175T352 201T353 221V722H453V194Q453 144 435 106T386 42T315 3T229 -11Q215 -11 193 -9T147 2T100 24T57 64Q44 81 37 100T27 136T22 169T21 196H127ZM255 786L361 931H451L555 786H469L403 882L332 786H255Z"  />
<glyph unicode="&#x135;" horiz-adv-x="278" d="M-1 -126Q27 -127 44 -125T72 -112T87 -84T91 -36V502H185V-47Q185 -65 183 -90T168 -140T130 -180T57 -197Q48 -197 34 -196T-1 -193V-126ZM-12 596L94 741H184L288 596H202L136 692L65 596H-12Z"  />
<glyph unicode="&#x136;" horiz-adv-x="667" d="M93 722H192V406L493 722H630L307 399L665 0H525L192 383V0H93V722ZM389 -66L306 -242H256L302 -66H389Z"  />
<glyph unicode="&#x137;" horiz-adv-x="500" d="M81 727H174V297L362 502H485L273 289L498 0H375L174 271V0H81V727ZM316 -66L233 -242H183L229 -66H316Z"  />
<glyph unicode="&#x139;" horiz-adv-x="556" d="M93 722H192V89H528V0H93V722ZM295 930L174 786H109L191 930H295Z"  />
<glyph unicode="&#x13A;" horiz-adv-x="278" d="M90 721H184V0H90V721ZM278 918L157 774H92L174 918H278Z"  />
<glyph unicode="&#x13B;" horiz-adv-x="556" d="M93 722H192V89H528V0H93V722ZM356 -66L273 -242H223L269 -66H356Z"  />
<glyph unicode="&#x13C;" horiz-adv-x="278" d="M90 721H184V0H90V721ZM188 -66L105 -242H55L101 -66H188Z"  />
<glyph unicode="&#x13D;" horiz-adv-x="556" d="M93 722H192V89H528V0H93V722ZM478 722L403 563H352L392 722H478Z"  />
<glyph unicode="&#x13E;" horiz-adv-x="278" d="M90 721H184V0H90V721ZM379 722L304 563H253L293 722H379Z"  />
<glyph unicode="&#x13F;" horiz-adv-x="556" d="M93 722H192V89H528V0H93V722ZM373 470H465V368H373V470Z"  />
<glyph unicode="&#x140;" horiz-adv-x="389" d="M90 721H184V0H90V721ZM284 443H376V341H284V443Z"  />
<glyph unicode="&#x141;" horiz-adv-x="556" d="M93 304L19 258V332L93 377V722H192V439L385 559V486L192 366V89H528V0H93V304Z"  />
<glyph unicode="&#x142;" horiz-adv-x="278" d="M90 299L24 258V330L90 371V721H184V429L250 470V398L184 357V0H90V299Z"  />
<glyph unicode="&#x143;" horiz-adv-x="766" d="M95 722H234L589 125V722H681V0H553L186 613V0H95V722ZM542 930L421 786H356L438 930H542Z"  />
<glyph unicode="&#x144;" horiz-adv-x="611" d="M91 444L90 502H184L185 421Q189 429 198 444T226 474T274 500T346 512Q363 512 393 507T454 485T506 433T528 341V0H432V319Q432 344 427 366T405 405Q387 422 364 430T316 439Q290 439 267 430T225 402T196 355T185 289V0H91V444ZM458 740L337 596H272L354 740H458Z"  />
<glyph unicode="&#x145;" horiz-adv-x="766" d="M95 722H234L589 125V722H681V0H553L186 613V0H95V722ZM428 -66L345 -242H295L341 -66H428Z"  />
<glyph unicode="&#x146;" horiz-adv-x="611" d="M91 444L90 502H184L185 421Q189 429 198 444T226 474T274 500T346 512Q363 512 393 507T454 485T506 433T528 341V0H432V319Q432 344 427 366T405 405Q387 422 364 430T316 439Q290 439 267 430T225 402T196 355T185 289V0H91V444ZM361 -66L278 -242H228L274 -66H361Z"  />
<glyph unicode="&#x147;" horiz-adv-x="766" d="M95 722H234L589 125V722H681V0H553L186 613V0H95V722ZM235 929H321L388 833L457 929H536L432 786H339L235 929Z"  />
<glyph unicode="&#x148;" horiz-adv-x="611" d="M91 444L90 502H184L185 421Q189 429 198 444T226 474T274 500T346 512Q363 512 393 507T454 485T506 433T528 341V0H432V319Q432 344 427 366T405 405Q387 422 364 430T316 439Q290 439 267 430T225 402T196 355T185 289V0H91V444ZM163 739H249L316 643L385 739H464L360 596H267L163 739Z"  />
<glyph unicode="&#x149;" horiz-adv-x="611" d="M91 444L90 502H184L185 421Q189 429 198 444T226 474T274 500T346 512Q363 512 393 507T454 485T506 433T528 341V0H432V319Q432 344 427 366T405 405Q387 422 364 430T316 439Q290 439 267 430T225 402T196 355T185 289V0H91V444ZM170 722L95 563H44L84 722H170Z"  />
<glyph unicode="&#x14C;" horiz-adv-x="778" d="M59 356Q59 387 62 424T76 499T104 574T152 644Q180 674 212 693T275 722T337 737T393 741Q468 741 528 717T631 646T696 530T719 368Q719 296 703 227T649 104T546 16T385 -17Q293 -17 231 13T130 95T76 214T59 356ZM164 362Q164 302 177 242T228 134Q259 96 302 82T388 68Q433 68 474 82T548 134Q570 161 583 194T602 260T611 322T613 369Q613 430 602 483T566 574T498 635T394 657Q325 657 281 632T210 565T174 471T164 362ZM252 885H527V832H252V885Z"  />
<glyph unicode="&#x14D;" horiz-adv-x="611" d="M51 245Q51 291 63 339T104 426T183 490T306 515Q381 515 429 489T504 423T542 337T552 252Q552 197 537 148T490 63T410 5T298 -17Q236 -17 190 3T112 59T66 142T51 245ZM149 251Q149 212 157 177T184 114T231 70T300 53Q327 53 354 63T402 97T438 159T452 255Q452 349 412 397T306 446Q283 446 256 438T205 408T165 348T149 251ZM165 695H440V642H165V695Z"  />
<glyph unicode="&#x14E;" horiz-adv-x="778" d="M59 356Q59 387 62 424T76 499T104 574T152 644Q180 674 212 693T275 722T337 737T393 741Q468 741 528 717T631 646T696 530T719 368Q719 296 703 227T649 104T546 16T385 -17Q293 -17 231 13T130 95T76 214T59 356ZM164 362Q164 302 177 242T228 134Q259 96 302 82T388 68Q433 68 474 82T548 134Q570 161 583 194T602 260T611 322T613 369Q613 430 602 483T566 574T498 635T394 657Q325 657 281 632T210 565T174 471T164 362ZM298 941Q300 898 320 873T386 847Q417 847 435 859T463 887T475 918T478 941H525Q527 863 492 824T386 784Q336 784 309 803T268 848T253 900T251 941H298Z"  />
<glyph unicode="&#x14F;" horiz-adv-x="611" d="M51 245Q51 291 63 339T104 426T183 490T306 515Q381 515 429 489T504 423T542 337T552 252Q552 197 537 148T490 63T410 5T298 -17Q236 -17 190 3T112 59T66 142T51 245ZM149 251Q149 212 157 177T184 114T231 70T300 53Q327 53 354 63T402 97T438 159T452 255Q452 349 412 397T306 446Q283 446 256 438T205 408T165 348T149 251ZM212 751Q214 708 234 683T300 657Q331 657 349 669T377 697T389 728T392 751H439Q441 673 406 634T300 594Q250 594 223 613T182 658T167 710T165 751H212Z"  />
<glyph unicode="&#x150;" horiz-adv-x="778" d="M59 356Q59 387 62 424T76 499T104 574T152 644Q180 674 212 693T275 722T337 737T393 741Q468 741 528 717T631 646T696 530T719 368Q719 296 703 227T649 104T546 16T385 -17Q293 -17 231 13T130 95T76 214T59 356ZM164 362Q164 302 177 242T228 134Q259 96 302 82T388 68Q433 68 474 82T548 134Q570 161 583 194T602 260T611 322T613 369Q613 430 602 483T566 574T498 635T394 657Q325 657 281 632T210 565T174 471T164 362ZM350 786H285L367 930H471L350 786ZM509 786H444L526 930H630L509 786Z"  />
<glyph unicode="&#x151;" horiz-adv-x="611" d="M51 245Q51 291 63 339T104 426T183 490T306 515Q381 515 429 489T504 423T542 337T552 252Q552 197 537 148T490 63T410 5T298 -17Q236 -17 190 3T112 59T66 142T51 245ZM149 251Q149 212 157 177T184 114T231 70T300 53Q327 53 354 63T402 97T438 159T452 255Q452 349 412 397T306 446Q283 446 256 438T205 408T165 348T149 251ZM262 596H197L279 740H383L262 596ZM421 596H356L438 740H542L421 596Z"  />
<glyph unicode="&#x152;" horiz-adv-x="1000" d="M947 0H368Q304 0 246 22T142 89T71 202T44 364Q44 408 51 452T75 537T122 614T195 678Q268 725 393 725Q398 725 411 725T439 724Q453 723 466 723T484 722H944V639H604V412H928V329H604V86H947V0ZM503 641Q465 643 442 644T393 646Q356 646 328 640T279 624T243 602T217 578Q195 555 182 528T161 472T151 416T148 365Q148 341 150 314T160 260T179 207T209 157Q236 122 283 103T409 83Q419 83 428 83T447 83T471 83T503 85V641Z"  />
<glyph unicode="&#x153;" horiz-adv-x="944" d="M887 155Q881 101 858 68T804 16T741 -9T686 -16Q647 -16 612 -4T548 31Q524 51 513 70T495 104Q489 92 479 75T449 38Q391 -15 299 -15Q230 -15 183 9T107 72T65 157T52 246Q52 298 68 346T117 431T196 489T304 511Q354 511 388 497T443 463T477 422T496 388Q511 433 538 458T594 496T648 511T686 514Q731 514 765 501T825 466T865 416T886 359Q894 322 895 291T895 234H545Q545 225 545 211T548 181T555 149T568 118Q586 86 618 70T682 54Q729 54 759 82T795 155H887ZM797 303Q797 315 796 340T781 391Q769 415 746 431T682 447Q643 447 616 432T573 393Q557 370 553 345T548 303H797ZM154 254Q154 246 155 229T160 190T173 145T196 102Q209 85 234 69T305 53Q348 53 376 71T422 119T446 182T453 249Q453 285 446 319T421 381T375 425T306 442Q261 442 232 424T186 379T161 318T154 254Z"  />
<glyph unicode="&#x154;" horiz-adv-x="667" d="M86 722H344Q358 722 378 722T421 718T467 708T510 688Q551 662 570 624T590 541Q590 503 577 470T539 413Q516 390 494 381T454 366Q480 359 499 349T531 324T552 285T564 227Q568 195 571 167T580 112T591 58T609 0H502Q496 18 491 42T482 93T475 144T469 191Q464 230 456 256T431 297T385 319T311 326H185V0H86V722ZM183 411H341Q345 411 356 411T382 412T411 417T436 427Q441 430 449 436T466 454T479 482T485 521Q485 565 468 588T428 623T381 636T341 638H183V411ZM456 930L335 786H270L352 930H456Z"  />
<glyph unicode="&#x155;" horiz-adv-x="389" d="M93 400Q93 426 92 451T88 502H183L185 405Q192 431 205 449T236 478T271 496T305 504Q326 507 342 507T370 506V414Q364 416 352 418Q347 419 340 419T325 419Q283 419 257 408T215 376T194 327T188 267V0H93V400ZM300 740L179 596H114L196 740H300Z"  />
<glyph unicode="&#x156;" horiz-adv-x="667" d="M86 722H344Q358 722 378 722T421 718T467 708T510 688Q551 662 570 624T590 541Q590 503 577 470T539 413Q516 390 494 381T454 366Q480 359 499 349T531 324T552 285T564 227Q568 195 571 167T580 112T591 58T609 0H502Q496 18 491 42T482 93T475 144T469 191Q464 230 456 256T431 297T385 319T311 326H185V0H86V722ZM183 411H341Q345 411 356 411T382 412T411 417T436 427Q441 430 449 436T466 454T479 482T485 521Q485 565 468 588T428 623T381 636T341 638H183V411ZM366 -66L283 -242H233L279 -66H366Z"  />
<glyph unicode="&#x157;" horiz-adv-x="389" d="M93 400Q93 426 92 451T88 502H183L185 405Q192 431 205 449T236 478T271 496T305 504Q326 507 342 507T370 506V414Q364 416 352 418Q347 419 340 419T325 419Q283 419 257 408T215 376T194 327T188 267V0H93V400ZM196 -66L113 -242H63L109 -66H196Z"  />
<glyph unicode="&#x158;" horiz-adv-x="667" d="M86 722H344Q358 722 378 722T421 718T467 708T510 688Q551 662 570 624T590 541Q590 503 577 470T539 413Q516 390 494 381T454 366Q480 359 499 349T531 324T552 285T564 227Q568 195 571 167T580 112T591 58T609 0H502Q496 18 491 42T482 93T475 144T469 191Q464 230 456 256T431 297T385 319T311 326H185V0H86V722ZM183 411H341Q345 411 356 411T382 412T411 417T436 427Q441 430 449 436T466 454T479 482T485 521Q485 565 468 588T428 623T381 636T341 638H183V411ZM176 929H262L329 833L398 929H477L373 786H280L176 929Z"  />
<glyph unicode="&#x159;" horiz-adv-x="389" d="M93 400Q93 426 92 451T88 502H183L185 405Q192 431 205 449T236 478T271 496T305 504Q326 507 342 507T370 506V414Q364 416 352 418Q347 419 340 419T325 419Q283 419 257 408T215 376T194 327T188 267V0H93V400ZM39 739H125L192 643L261 739H340L236 596H143L39 739Z"  />
<glyph unicode="&#x15A;" horiz-adv-x="667" d="M160 211Q161 192 165 168T185 121T237 84T334 68Q390 68 423 83T474 119T497 161T503 197Q503 227 492 246T458 279T406 301T337 319Q296 329 266 337T212 352T172 366T141 383Q97 413 82 451T66 525Q66 580 90 620T152 685T240 723T341 736Q359 736 385 734T439 725T494 703T544 665Q559 648 567 631T580 598T586 568T588 542H484Q482 576 468 597T433 631T385 647T332 652Q257 652 215 621T172 535Q172 511 180 494T204 465T244 445T302 428Q366 411 405 401T467 384T505 369T535 352Q560 335 574 315T596 275T605 237T607 208Q607 160 589 119T534 48T445 0T322 -17Q301 -17 272 -15T211 -4T149 21T98 65Q83 85 75 105T62 145T57 181T56 211H160ZM474 930L353 786H288L370 930H474Z"  />
<glyph unicode="&#x15B;" horiz-adv-x="500" d="M142 149Q142 135 146 119T162 90T196 67T252 58Q281 58 303 64T340 90Q356 111 356 137Q356 155 350 167T330 186T295 200T246 212Q207 221 172 231T110 257T69 298T53 362Q53 396 67 424T107 472T169 503T249 514Q273 514 300 510T352 497T398 473T430 436Q440 415 441 397T443 363H347Q348 391 338 407T313 432T280 443T250 445Q245 445 229 444T194 436T162 415T148 373Q148 356 155 345T174 326T197 316T219 309Q271 297 304 289T359 273T394 258T418 240Q439 220 447 196T456 147Q456 105 436 71T388 20Q355 0 317 -7T239 -14Q201 -14 166 -6T103 22T59 72T43 149H142ZM391 740L270 596H205L287 740H391Z"  />
<glyph unicode="&#x15C;" horiz-adv-x="667" d="M160 211Q161 192 165 168T185 121T237 84T334 68Q390 68 423 83T474 119T497 161T503 197Q503 227 492 246T458 279T406 301T337 319Q296 329 266 337T212 352T172 366T141 383Q97 413 82 451T66 525Q66 580 90 620T152 685T240 723T341 736Q359 736 385 734T439 725T494 703T544 665Q559 648 567 631T580 598T586 568T588 542H484Q482 576 468 597T433 631T385 647T332 652Q257 652 215 621T172 535Q172 511 180 494T204 465T244 445T302 428Q366 411 405 401T467 384T505 369T535 352Q560 335 574 315T596 275T605 237T607 208Q607 160 589 119T534 48T445 0T322 -17Q301 -17 272 -15T211 -4T149 21T98 65Q83 85 75 105T62 145T57 181T56 211H160ZM182 786L288 931H378L482 786H396L330 882L259 786H182Z"  />
<glyph unicode="&#x15D;" horiz-adv-x="500" d="M142 149Q142 135 146 119T162 90T196 67T252 58Q281 58 303 64T340 90Q356 111 356 137Q356 155 350 167T330 186T295 200T246 212Q207 221 172 231T110 257T69 298T53 362Q53 396 67 424T107 472T169 503T249 514Q273 514 300 510T352 497T398 473T430 436Q440 415 441 397T443 363H347Q348 391 338 407T313 432T280 443T250 445Q245 445 229 444T194 436T162 415T148 373Q148 356 155 345T174 326T197 316T219 309Q271 297 304 289T359 273T394 258T418 240Q439 220 447 196T456 147Q456 105 436 71T388 20Q355 0 317 -7T239 -14Q201 -14 166 -6T103 22T59 72T43 149H142ZM109 596L215 741H305L409 596H323L257 692L186 596H109Z"  />
<glyph unicode="&#x15E;" horiz-adv-x="667" d="M241 -157Q249 -162 264 -166T308 -171Q361 -171 361 -131Q361 -118 356 -110T342 -98T325 -93T310 -92Q299 -92 292 -94T274 -100L259 -83L306 -17Q284 -16 256 -13T200 0T144 24T98 65Q83 85 75 105T62 145T57 181T56 211H160Q161 192 165 168T186 121T237 84T334 68Q390 68 423 83T474 119T497 161T503 197Q503 227 492 246T458 279T406 301T337 319Q296 329 266 337T212 352T172 366T141 383Q97 413 82 451T66 525Q66 580 90 620T152 685T240 723T341 736Q359 736 385 734T439 725T494 703T544 665Q574 630 580 598T588 542H484Q482 576 468 597T433 631T385 647T332 652Q257 652 215 621T172 535Q172 511 180 494T204 465T244 445T302 428Q367 411 405 401T467 383T505 369T535 352Q560 335 574 315T595 275T605 238T607 208Q607 162 590 123T541 53T460 5T348 -16L319 -58Q327 -56 336 -55T359 -53Q381 -53 396 -60T420 -77T433 -100T437 -124Q437 -127 435 -141T422 -172T385 -201T315 -214Q279 -214 259 -208T221 -194L241 -157Z"  />
<glyph unicode="&#x15F;" horiz-adv-x="500" d="M162 -157Q170 -162 185 -166T229 -171Q282 -171 282 -131Q282 -118 277 -110T263 -98T246 -93T231 -92Q220 -92 213 -94T195 -100L180 -83L229 -14Q192 -13 158 -4T99 24T58 74T43 149H142Q142 135 146 119T163 90T196 67T252 58Q281 58 303 64T340 90Q356 110 356 137Q356 173 330 186T246 212Q207 221 172 231T110 257T69 298T53 362Q53 396 67 424T107 472T169 503T249 514Q273 514 300 510T352 497T398 473T430 436Q440 415 441 397T443 363H347Q348 391 338 407T313 432T281 443T250 445Q245 445 229 444T194 436T162 415T148 373Q148 355 155 344T174 327T197 316T219 309Q271 297 304 289T359 273T394 258T418 240Q439 220 447 196T456 147Q456 105 436 71T388 20Q362 4 333 -3T272 -13L240 -58Q248 -56 257 -55T280 -53Q302 -53 317 -60T341 -77T354 -100T358 -124Q358 -127 356 -141T343 -172T306 -201T236 -214Q200 -214 180 -208T142 -194L162 -157Z"  />
<glyph unicode="&#x160;" horiz-adv-x="667" d="M160 211Q161 192 165 168T185 121T237 84T334 68Q390 68 423 83T474 119T497 161T503 197Q503 227 492 246T458 279T406 301T337 319Q296 329 266 337T212 352T172 366T141 383Q97 413 82 451T66 525Q66 580 90 620T152 685T240 723T341 736Q359 736 385 734T439 725T494 703T544 665Q559 648 567 631T580 598T586 568T588 542H484Q482 576 468 597T433 631T385 647T332 652Q257 652 215 621T172 535Q172 511 180 494T204 465T244 445T302 428Q366 411 405 401T467 384T505 369T535 352Q560 335 574 315T596 275T605 237T607 208Q607 160 589 119T534 48T445 0T322 -17Q301 -17 272 -15T211 -4T149 21T98 65Q83 85 75 105T62 145T57 181T56 211H160ZM181 929H267L334 833L403 929H482L378 786H285L181 929Z"  />
<glyph unicode="&#x161;" horiz-adv-x="500" d="M142 149Q142 135 146 119T162 90T196 67T252 58Q281 58 303 64T340 90Q356 111 356 137Q356 155 350 167T330 186T295 200T246 212Q207 221 172 231T110 257T69 298T53 362Q53 396 67 424T107 472T169 503T249 514Q273 514 300 510T352 497T398 473T430 436Q440 415 441 397T443 363H347Q348 391 338 407T313 432T280 443T250 445Q245 445 229 444T194 436T162 415T148 373Q148 356 155 345T174 326T197 316T219 309Q271 297 304 289T359 273T394 258T418 240Q439 220 447 196T456 147Q456 105 436 71T388 20Q355 0 317 -7T239 -14Q201 -14 166 -6T103 22T59 72T43 149H142ZM97 739H183L250 643L319 739H398L294 596H201L97 739Z"  />
<glyph unicode="&#x162;" horiz-adv-x="607" d="M263 0V637H21V722H604V637H362V0H263ZM350 -66L267 -242H217L263 -66H350Z"  />
<glyph unicode="&#x163;" horiz-adv-x="333" d="M11 504H100V609L193 639V504H305V435H193V134Q193 125 194 113T201 91T221 74T260 67Q274 67 286 68T305 72V-1Q292 -3 273 -5T227 -7Q162 -7 131 15T100 100V435H11V504ZM229 -66L146 -242H96L142 -66H229Z"  />
<glyph unicode="&#x164;" horiz-adv-x="607" d="M263 0V637H21V722H604V637H362V0H263ZM153 929H239L306 833L375 929H454L350 786H257L153 929Z"  />
<glyph unicode="&#x165;" horiz-adv-x="333" d="M11 504H100V609L193 639V504H305V435H193V134Q193 125 194 113T201 91T221 74T260 67Q274 67 286 68T305 72V-1Q292 -3 273 -5T227 -7Q162 -7 131 15T100 100V435H11V504ZM398 722L323 563H272L312 722H398Z"  />
<glyph unicode="&#x166;" horiz-adv-x="607" d="M138 471H254V637H12V722H595V637H353V471H469V422H353V0H254V422H138V471Z"  />
<glyph unicode="&#x167;" horiz-adv-x="333" d="M11 504H100V609L193 639V504H305V435H193V321H296V278H193V134Q193 125 194 113T201 91T221 74T260 67Q274 67 286 68T305 72V-1Q292 -3 273 -5T227 -7Q162 -7 131 15T100 100V278H21V321H100V435H11V504Z"  />
<glyph unicode="&#x168;" horiz-adv-x="763" d="M193 722V275Q193 246 196 225T203 189T213 164T225 145Q242 122 263 109T306 87T349 77T390 74Q463 74 502 98T560 157T582 225T585 279V722H682V277Q682 262 681 241T675 194T657 140T623 85Q596 52 564 32T500 2T438 -12T390 -15Q364 -15 331 -11T262 6T194 41T135 100Q127 112 120 126T106 162T97 212T93 282V722H193ZM261 802Q262 845 285 872Q307 900 346 900Q352 900 357 900T369 898T389 893T423 883Q434 880 442 878T460 876Q497 876 497 913H538Q539 884 531 865T511 834T483 817T454 812Q440 812 427 815T391 825Q376 829 361 833T341 838Q330 838 320 831T303 802H261Z"  />
<glyph unicode="&#x169;" horiz-adv-x="611" d="M174 502V179Q174 161 177 141T191 105T224 79T281 68Q316 68 347 81T399 124Q415 147 417 173T420 218V502H517V94Q517 90 517 79T518 54T519 25T520 0H422L420 86Q413 73 403 57T374 28T328 5T260 -5Q213 -5 179 7T123 42T89 96T78 165V502H174ZM162 612Q164 655 186 682Q209 710 247 710Q253 710 258 710T270 707T290 702T324 693Q335 690 343 688T361 686Q379 686 388 696T398 723H439Q440 694 432 675T412 644T384 627T355 622Q341 622 328 625T292 635Q277 639 262 643T242 648Q231 648 221 641T204 612H162Z"  />
<glyph unicode="&#x16A;" horiz-adv-x="763" d="M193 722V275Q193 246 196 225T203 189T213 164T225 145Q242 122 263 109T306 87T349 77T390 74Q463 74 502 98T560 157T582 225T585 279V722H682V277Q682 262 681 241T675 194T657 140T623 85Q596 52 564 32T500 2T438 -12T390 -15Q364 -15 331 -11T262 6T194 41T135 100Q127 112 120 126T106 162T97 212T93 282V722H193ZM257 885H532V832H257V885Z"  />
<glyph unicode="&#x16B;" horiz-adv-x="611" d="M174 502V179Q174 161 177 141T191 105T224 79T281 68Q316 68 347 81T399 124Q415 147 417 173T420 218V502H517V94Q517 90 517 79T518 54T519 25T520 0H422L420 86Q413 73 403 57T374 28T328 5T260 -5Q213 -5 179 7T123 42T89 96T78 165V502H174ZM161 695H436V642H161V695Z"  />
<glyph unicode="&#x16C;" horiz-adv-x="763" d="M193 722V275Q193 246 196 225T203 189T213 164T225 145Q242 122 263 109T306 87T349 77T390 74Q463 74 502 98T560 157T582 225T585 279V722H682V277Q682 262 681 241T675 194T657 140T623 85Q596 52 564 32T500 2T438 -12T390 -15Q364 -15 331 -11T262 6T194 41T135 100Q127 112 120 126T106 162T97 212T93 282V722H193ZM306 941Q308 898 328 873T394 847Q425 847 443 859T471 887T483 918T486 941H533Q535 863 500 824T394 784Q344 784 317 803T276 848T261 900T259 941H306Z"  />
<glyph unicode="&#x16D;" horiz-adv-x="611" d="M174 502V179Q174 161 177 141T191 105T224 79T281 68Q316 68 347 81T399 124Q415 147 417 173T420 218V502H517V94Q517 90 517 79T518 54T519 25T520 0H422L420 86Q413 73 403 57T374 28T328 5T260 -5Q213 -5 179 7T123 42T89 96T78 165V502H174ZM210 751Q212 708 232 683T298 657Q329 657 347 669T375 697T387 728T390 751H437Q439 673 404 634T298 594Q248 594 221 613T180 658T165 710T163 751H210Z"  />
<glyph unicode="&#x16E;" horiz-adv-x="763" d="M193 722V275Q193 246 196 225T203 189T213 164T225 145Q242 122 263 109T306 87T349 77T390 74Q463 74 502 98T560 157T582 225T585 279V722H682V277Q682 262 681 241T675 194T657 140T623 85Q596 52 564 32T500 2T438 -12T390 -15Q364 -15 331 -11T262 6T194 41T135 100Q127 112 120 126T106 162T97 212T93 282V722H193ZM286 859Q286 901 314 929T384 957Q426 957 454 929T482 859Q482 817 454 789T384 761Q342 761 314 789T286 859ZM326 859Q326 835 343 818T384 801Q408 801 425 818T442 859Q442 883 425 900T384 917Q360 917 343 900T326 859Z"  />
<glyph unicode="&#x16F;" horiz-adv-x="611" d="M174 502V179Q174 161 177 141T191 105T224 79T281 68Q316 68 347 81T399 124Q415 147 417 173T420 218V502H517V94Q517 90 517 79T518 54T519 25T520 0H422L420 86Q413 73 403 57T374 28T328 5T260 -5Q213 -5 179 7T123 42T89 96T78 165V502H174ZM208 669Q208 711 236 739T306 767Q348 767 376 739T404 669Q404 627 376 599T306 571Q264 571 236 599T208 669ZM248 669Q248 645 265 628T306 611Q330 611 347 628T364 669Q364 693 347 710T306 727Q282 727 265 710T248 669Z"  />
<glyph unicode="&#x170;" horiz-adv-x="763" d="M193 722V275Q193 246 196 225T203 189T213 164T225 145Q242 122 263 109T306 87T349 77T390 74Q463 74 502 98T560 157T582 225T585 279V722H682V277Q682 262 681 241T675 194T657 140T623 85Q596 52 564 32T500 2T438 -12T390 -15Q364 -15 331 -11T262 6T194 41T135 100Q127 112 120 126T106 162T97 212T93 282V722H193ZM331 786H266L348 930H452L331 786ZM490 786H425L507 930H611L490 786Z"  />
<glyph unicode="&#x171;" horiz-adv-x="611" d="M174 502V179Q174 161 177 141T191 105T224 79T281 68Q316 68 347 81T399 124Q415 147 417 173T420 218V502H517V94Q517 90 517 79T518 54T519 25T520 0H422L420 86Q413 73 403 57T374 28T328 5T260 -5Q213 -5 179 7T123 42T89 96T78 165V502H174ZM251 596H186L268 740H372L251 596ZM410 596H345L427 740H531L410 596Z"  />
<glyph unicode="&#x172;" horiz-adv-x="763" d="M487 -173Q469 -182 448 -190T393 -198Q366 -198 348 -191T319 -173T304 -149T299 -124Q299 -89 324 -62T387 -15H384Q358 -15 325 -11T256 6T188 41T129 100Q121 112 114 126T100 162T91 212T87 282V722H187V275Q187 217 197 189T219 145Q236 122 257 108T300 87T344 77T384 74Q457 74 496 98T554 157T576 225T579 279V722H676V277Q676 262 675 241T669 194T651 140T617 85Q598 61 577 45T532 17T487 0T443 -10Q417 -27 398 -47T378 -94Q378 -113 387 -123T407 -137T428 -143T442 -144Q459 -144 469 -141T487 -132V-173Z"  />
<glyph unicode="&#x173;" horiz-adv-x="611" d="M508 -173Q490 -182 469 -190T414 -198Q387 -198 369 -191T340 -173T325 -149T320 -124Q320 -82 354 -52T438 0H422L420 86Q413 73 403 57T374 28T329 5T260 -5Q167 -5 123 42T78 165V502H174V179Q174 161 177 141T191 105T224 79T281 68Q316 68 347 81T399 124Q415 147 417 173T420 218V502H517V94Q517 90 517 79T518 54T519 25T520 0H479Q464 -10 450 -20T425 -41T406 -65T399 -94Q399 -113 408 -123T428 -137T449 -143T463 -144Q480 -144 490 -141T508 -132V-173Z"  />
<glyph unicode="&#x174;" horiz-adv-x="1000" d="M115 722L271 128L443 722H567L730 123L894 722H992L778 0H667L500 617L321 0H213L8 722H115ZM357 786L463 931H553L657 786H571L505 882L434 786H357Z"  />
<glyph unicode="&#x175;" horiz-adv-x="833" d="M115 502L236 102L363 502H486L600 106L726 502H823L646 0H538L420 413L289 0H178L12 502H115ZM273 596L379 741H469L573 596H487L421 692L350 596H273Z"  />
<glyph unicode="&#x176;" horiz-adv-x="667" d="M289 284L7 722H131L344 368L560 722H672L390 279V0H289V284ZM210 786L316 931H406L510 786H424L358 882L287 786H210Z"  />
<glyph unicode="&#x177;" horiz-adv-x="556" d="M314 -3L242 -190H145L221 2L12 502H118L275 106L435 502H537L314 -3ZM141 596L247 741H337L441 596H355L289 692L218 596H141Z"  />
<glyph unicode="&#x178;" horiz-adv-x="667" d="M289 284L7 722H131L344 368L560 722H672L390 279V0H289V284ZM212 900H304V798H212V900ZM401 900H494V798H401V900Z"  />
<glyph unicode="&#x179;" horiz-adv-x="611" d="M35 100L452 634H46V722H571V623L150 88H578V0H35V100ZM455 930L334 786H269L351 930H455Z"  />
<glyph unicode="&#x17A;" horiz-adv-x="444" d="M30 97L298 431H44V502H405V422L128 73H405V0H30V97ZM375 740L254 596H189L271 740H375Z"  />
<glyph unicode="&#x17B;" horiz-adv-x="611" d="M35 100L452 634H46V722H571V623L150 88H578V0H35V100ZM278 909H370V807H278V909Z"  />
<glyph unicode="&#x17C;" horiz-adv-x="444" d="M30 97L298 431H44V502H405V422L128 73H405V0H30V97ZM187 719H279V617H187V719Z"  />
<glyph unicode="&#x17D;" horiz-adv-x="611" d="M35 100L452 634H46V722H571V623L150 88H578V0H35V100ZM153 929H239L306 833L375 929H454L350 786H257L153 929Z"  />
<glyph unicode="&#x17E;" horiz-adv-x="444" d="M30 97L298 431H44V502H405V422L128 73H405V0H30V97ZM69 739H155L222 643L291 739H370L266 596H173L69 739Z"  />
<glyph unicode="&#x192;" horiz-adv-x="556" d="M228 417L251 527Q259 563 269 594T303 646Q329 669 361 676T417 684Q431 684 442 683T471 678L460 608Q453 609 444 610T425 611Q403 611 388 604T362 584T347 557T338 525L315 417H420L406 350H303L242 25Q231 -31 221 -74T189 -145T132 -187T34 -197L46 -125Q50 -126 53 -126T62 -127Q85 -127 99 -117T119 -98Q123 -91 126 -83T133 -58T142 -17T157 49L215 350H125L137 417H228Z"  />
<glyph unicode="&#x218;" horiz-adv-x="667" d="M160 211Q161 192 165 168T185 121T237 84T334 68Q390 68 423 83T474 119T497 161T503 197Q503 227 492 246T458 279T406 301T337 319Q296 329 266 337T212 352T172 366T141 383Q97 413 82 451T66 525Q66 580 90 620T152 685T240 723T341 736Q359 736 385 734T439 725T494 703T544 665Q559 648 567 631T580 598T586 568T588 542H484Q482 576 468 597T433 631T385 647T332 652Q257 652 215 621T172 535Q172 511 180 494T204 465T244 445T302 428Q366 411 405 401T467 384T505 369T535 352Q560 335 574 315T596 275T605 237T607 208Q607 160 589 119T534 48T445 0T322 -17Q301 -17 272 -15T211 -4T149 21T98 65Q83 85 75 105T62 145T57 181T56 211H160ZM384 -66L301 -242H251L297 -66H384Z"  />
<glyph unicode="&#x219;" horiz-adv-x="500" d="M142 149Q142 135 146 119T162 90T196 67T252 58Q281 58 303 64T340 90Q356 111 356 137Q356 155 350 167T330 186T295 200T246 212Q207 221 172 231T110 257T69 298T53 362Q53 396 67 424T107 472T169 503T249 514Q273 514 300 510T352 497T398 473T430 436Q440 415 441 397T443 363H347Q348 391 338 407T313 432T280 443T250 445Q245 445 229 444T194 436T162 415T148 373Q148 356 155 345T174 326T197 316T219 309Q271 297 304 289T359 273T394 258T418 240Q439 220 447 196T456 147Q456 105 436 71T388 20Q355 0 317 -7T239 -14Q201 -14 166 -6T103 22T59 72T43 149H142ZM301 -66L218 -242H168L214 -66H301Z"  />
<glyph unicode="&#x21A;" horiz-adv-x="607" d="M263 0V637H21V722H604V637H362V0H263ZM350 -66L267 -242H217L263 -66H350Z"  />
<glyph unicode="&#x21B;" horiz-adv-x="333" d="M11 504H100V609L193 639V504H305V435H193V134Q193 125 194 113T201 91T221 74T260 67Q274 67 286 68T305 72V-1Q292 -3 273 -5T227 -7Q162 -7 131 15T100 100V435H11V504ZM229 -66L146 -242H96L142 -66H229Z"  />
<glyph unicode="&#x237;" horiz-adv-x="278" d="M-1 -126Q27 -127 44 -125T72 -112T87 -84T91 -36V502H185V-47Q185 -65 183 -90T168 -140T130 -180T57 -197Q48 -197 34 -196T-1 -193V-126Z"  />
<glyph unicode="&#x2C6;" horiz-adv-x="278" d="M-13 596L93 741H183L287 596H201L135 692L64 596H-13Z"  />
<glyph unicode="&#x2C7;" horiz-adv-x="278" d="M-14 739H72L139 643L208 739H287L183 596H90L-14 739Z"  />
<glyph unicode="&#x2C9;" horiz-adv-x="278" d="M0 695H275V642H0V695Z"  />
<glyph unicode="&#x2D8;" horiz-adv-x="278" d="M49 751Q51 708 71 683T137 657Q168 657 186 669T214 697T226 728T229 751H276Q278 673 243 634T137 594Q87 594 60 613T19 658T4 710T2 751H49Z"  />
<glyph unicode="&#x2D9;" horiz-adv-x="278" d="M93 719H185V617H93V719Z"  />
<glyph unicode="&#x2DA;" horiz-adv-x="278" d="M41 669Q41 711 69 739T139 767Q181 767 209 739T237 669Q237 627 209 599T139 571Q97 571 69 599T41 669ZM81 669Q81 645 98 628T139 611Q163 611 180 628T197 669Q197 693 180 710T139 727Q115 727 98 710T81 669Z"  />
<glyph unicode="&#x2DB;" horiz-adv-x="278" d="M233 -173Q215 -182 194 -190T139 -198Q112 -198 94 -191T65 -173T50 -149T45 -124Q45 -103 54 -85T80 -52T119 -23T166 1H206Q191 -9 177 -19T150 -41T131 -65T124 -94Q124 -113 133 -123T153 -137T174 -143T188 -144Q205 -144 215 -141T233 -132V-173Z"  />
<glyph unicode="&#x2DC;" horiz-adv-x="278" d="M-2 612Q0 655 22 682Q45 710 83 710Q89 710 94 710T106 707T126 702T160 693Q171 690 179 688T197 686Q215 686 224 696T234 723H275Q276 694 268 675T248 644T220 627T191 622Q177 622 164 625T128 635Q113 639 98 643T78 648Q67 648 57 641T40 612H-2Z"  />
<glyph unicode="&#x2DD;" horiz-adv-x="400" d="M71 596H6L88 740H192L71 596ZM230 596H165L247 740H351L230 596Z"  />
<glyph unicode="&#x394;" horiz-adv-x="678" d="M11 0L287 712H382L667 0H11ZM333 613L134 83H540L333 613Z"  />
<glyph unicode="&#x3A9;" horiz-adv-x="752" d="M429 0V185Q471 193 503 213T556 262T589 328T600 406Q600 455 583 497T535 571T462 620T371 638Q321 638 279 620T206 571T158 497T140 405Q140 322 183 262T309 185V0H46V77H236V139Q190 152 155 178T95 241T59 320T46 410Q46 478 71 535T141 633T245 698T370 721Q437 721 495 699T598 635T667 537T693 412Q693 364 681 321T645 241T586 179T503 139V77H693V0H429Z"  />
<glyph unicode="&#x3BC;" horiz-adv-x="611" d="M89 502H169V260Q169 243 169 224T172 185T179 147T192 114Q202 96 215 85T243 68T270 60T293 58Q320 58 350 71T402 121Q417 147 422 182T427 262V502H508V0H434V70Q427 60 416 46T388 20T348 -2T291 -11Q262 -11 242 -5T208 12T185 33T169 52V-209H89V502Z"  />
<glyph unicode="&#x3C0;" horiz-adv-x="578" d="M545 12Q526 3 509 -2T471 -7Q439 -7 422 3T397 30T387 69T385 118V424H180V0H101V424H31V502H542V424H464V123Q464 101 469 84T502 67Q524 67 545 77V12Z"  />
<glyph unicode="&#x2013;" horiz-adv-x="500" d="M0 303H500V231H0V303Z"  />
<glyph unicode="&#x2014;" horiz-adv-x="1000" d="M130 303H870V231H130V303Z"  />
<glyph unicode="&#x2018;" horiz-adv-x="278" d="M46 476L161 722H228L161 476H46Z"  />
<glyph unicode="&#x2019;" horiz-adv-x="278" d="M227 722L115 476H47L112 722H227Z"  />
<glyph unicode="&#x201A;" horiz-adv-x="278" d="M226 100L116 -135H49L111 100H226Z"  />
<glyph unicode="&#x201C;" horiz-adv-x="556" d="M87 476L202 722H269L202 476H87ZM274 476L389 722H456L389 476H274Z"  />
<glyph unicode="&#x201D;" horiz-adv-x="556" d="M279 722L164 476H97L164 722H279ZM466 722L352 476H285L352 722H466Z"  />
<glyph unicode="&#x201E;" horiz-adv-x="556" d="M279 100L169 -135H102L164 100H279ZM465 100L355 -135H288L351 100H465Z"  />
<glyph unicode="&#x2020;" horiz-adv-x="556" d="M480 479H313V0H234V479H64V553H234V722H313V553H480V479Z"  />
<glyph unicode="&#x2021;" horiz-adv-x="556" d="M235 722H315V556H485V481H315V243H485V169H315V0H235V169H65V243H235V481H65V556H235V722Z"  />
<glyph unicode="&#x2022;" horiz-adv-x="350" d="M178 542Q215 542 248 528T305 489T344 431T358 361Q358 324 344 291T306 234T248 195T178 181Q140 181 108 195T50 233T11 291T-3 361Q-3 399 11 432T50 489T108 528T178 542Z"  />
<glyph unicode="&#x2026;" horiz-adv-x="1000" d="M126 120H237V0H126V120ZM445 120H556V0H445V120ZM764 120H875V0H764V120Z"  />
<glyph unicode="&#x2030;" horiz-adv-x="1000" d="M301 545Q301 511 294 480T269 424T224 385T152 370Q78 370 44 415T9 534Q9 546 11 575T27 634T71 688T156 712Q232 712 266 666T301 545ZM155 427Q179 427 193 438T214 467T224 505T227 544Q227 565 224 585T213 620T192 646T156 656Q130 656 116 644T94 613T84 575T82 538Q82 522 84 503T93 467T115 439T155 427ZM638 163Q638 129 631 98T606 42T561 3T489 -12Q415 -12 381 33T346 152Q346 163 348 192T364 252T408 306T493 330Q568 330 603 284T638 163ZM492 45Q516 45 530 56T551 85T561 123T564 162Q564 183 561 203T550 238T528 264T492 274Q467 274 452 262T430 231T420 193T418 156Q418 140 420 121T429 85T452 57T492 45ZM985 163Q985 129 978 98T953 42T908 3T836 -12Q762 -12 728 33T693 152Q693 163 695 192T711 252T755 306T840 330Q916 330 950 284T985 163ZM839 45Q863 45 877 56T898 85T908 123T911 162Q911 183 908 203T897 238T876 264T840 274Q814 274 800 262T778 231T768 193T766 156Q766 140 768 121T777 85T799 57T839 45ZM582 731L110 -37H48L519 731H582Z"  />
<glyph unicode="&#x2039;" horiz-adv-x="278" d="M160 53L49 249L160 443H238L141 249L240 53H160Z"  />
<glyph unicode="&#x203A;" horiz-adv-x="278" d="M109 443L220 248L109 53H30L127 248L29 443H109Z"  />
<glyph unicode="&#x2044;" horiz-adv-x="167" d="M262 715H326L-103 -28H-168L262 715Z"  />
<glyph unicode="&#x20AC;" horiz-adv-x="556" d="M82 321V346Q82 355 82 368T84 391H24L38 447H90Q96 501 117 548T172 629T254 684T360 704Q426 704 468 688T529 646L502 558Q480 593 444 608T359 624Q318 624 288 610T236 572T203 516T185 447H488L474 391H179Q178 382 177 369T176 346V321H455L441 265H180Q184 225 196 189T228 126T279 82T350 65Q398 65 434 76T502 120V27Q475 5 432 -5T346 -15Q284 -15 238 6T161 65T111 154T87 265H22L36 321H82Z"  />
<glyph unicode="&#x2113;" horiz-adv-x="500" d="M428 44Q364 -14 285 -14Q222 -14 185 20T147 120V211L89 154H87L54 202L146 287V540Q146 582 157 615T187 672T233 708T291 721Q346 721 379 685T413 586Q413 511 369 434T236 272V134Q236 110 242 95T259 70T281 57T306 53Q348 53 394 91H396L428 44ZM339 580Q339 615 325 637T290 660Q268 660 252 635T236 555V350Q287 410 313 468T339 580Z"  />
<glyph unicode="&#x2122;" horiz-adv-x="1000" d="M409 722H492L589 425L688 722H766V361H720V685L608 361H563L455 685V361H409V722ZM195 361V679H93V722H344V679H239V361H195Z"  />
<glyph unicode="&#x2126;" horiz-adv-x="752" d="M429 0V185Q471 193 503 213T556 262T589 328T600 406Q600 455 583 497T535 571T462 620T371 638Q321 638 279 620T206 571T158 497T140 405Q140 322 183 262T309 185V0H46V77H236V139Q190 152 155 178T95 241T59 320T46 410Q46 478 71 535T141 633T245 698T370 721Q437 721 495 699T598 635T667 537T693 412Q693 364 681 321T645 241T586 179T503 139V77H693V0H429Z"  />
<glyph unicode="&#x212E;" horiz-adv-x="600" d="M448 295V440Q385 500 301 500Q217 500 157 440V295H448ZM157 259V78Q216 19 302 19Q365 19 411 47T495 139L530 118Q507 82 484 57T433 15T373 -9T302 -17Q243 -17 196 4T114 63T62 151T44 259Q44 317 62 367T114 455T195 513T302 535Q360 535 407 515T489 458T542 371T561 259H157Z"  />
<glyph unicode="&#x2202;" horiz-adv-x="523" d="M481 360Q481 301 472 236T437 115T365 24T243 -12Q195 -12 157 6T91 54T50 126T35 213Q35 258 49 297T89 366T153 412T238 429Q284 429 323 410T394 359Q394 369 394 379T395 400Q395 439 387 483T360 564T309 626T228 651Q193 651 166 638T112 604L65 659Q102 688 139 704T224 721Q299 721 348 688T427 603T469 486T481 360ZM391 271Q368 313 331 337T249 361Q216 361 192 349T151 315T126 267T118 209Q118 180 125 153T149 103T189 68T245 54Q285 54 312 76T357 130T382 201T391 271Z"  />
<glyph unicode="&#x2206;" horiz-adv-x="678" d="M11 0L287 712H382L667 0H11ZM333 613L134 83H540L333 613Z"  />
<glyph unicode="&#x220F;" horiz-adv-x="726" d="M570 -214V703H157V-214H66V786H660V-214H570Z"  />
<glyph unicode="&#x2211;" horiz-adv-x="626" d="M25 -214V-142L341 291L38 713V786H589V703H157L449 291L138 -132H601V-214H25Z"  />
<glyph unicode="&#x2212;" horiz-adv-x="584" d="M37 290H547V212H37V290Z"  />
<glyph unicode="&#x2215;" horiz-adv-x="167" d="M262 715H326L-103 -28H-168L262 715Z"  />
<glyph unicode="&#x2219;" horiz-adv-x="278" d="M81 352H192V231H81V352Z"  />
<glyph unicode="&#x221A;" horiz-adv-x="515" d="M315 -214H229L71 114L23 91L-10 161L114 219L258 -83L436 786H526L315 -214Z"  />
<glyph unicode="&#x221E;" horiz-adv-x="778" d="M681 260Q681 297 660 323T599 349Q579 349 559 340T521 318T486 288T456 259Q471 245 487 230T522 203T560 183T602 175Q640 175 660 199T681 260ZM361 259Q347 272 330 287T294 316T255 339T214 348Q177 348 157 322T136 260Q136 222 158 199T218 175Q237 175 257 183T296 203T331 231T361 259ZM754 263Q754 227 743 195T712 140T661 103T593 89Q563 89 538 98T490 121T447 155T408 196Q388 175 369 156T328 122T281 99T225 90Q187 90 157 103T105 139T73 193T61 262Q61 298 72 329T103 383T153 419T221 433Q252 433 278 424T326 398T369 362T408 319Q426 341 446 361T488 398T537 424T594 434Q631 434 660 421T711 384T743 330T754 263Z"  />
<glyph unicode="&#x222B;" horiz-adv-x="574" d="M442 723Q442 704 430 693T398 681Q380 681 371 689T357 708T348 727T335 736Q326 736 321 728T313 707T310 679T309 650Q309 624 310 601T311 564V-4Q311 -39 307 -76T288 -143T248 -193T179 -213Q166 -213 152 -210T125 -200T104 -182T96 -153Q96 -136 108 -124T138 -112Q156 -112 164 -120T178 -139T187 -157T199 -166Q208 -166 213 -160T221 -146T223 -127T224 -107Q224 -95 224 -80T224 -49T223 -21T223 0V574Q223 611 226 648T243 716T283 766T354 786Q366 786 381 783T409 772T432 752T442 723Z"  />
<glyph unicode="&#x2248;" horiz-adv-x="584" d="M544 440Q541 410 533 383T509 333T470 298T414 285Q385 285 351 296T281 321Q246 334 216 345T162 356Q133 356 116 333T95 282H39Q42 311 50 339T74 389T113 424T168 438Q199 438 231 428T297 403Q331 390 362 379T422 368Q452 368 468 389T489 440H544ZM544 240Q541 210 533 183T509 133T470 98T414 85Q385 85 351 96T281 121Q246 134 216 145T162 156Q133 156 116 133T95 82H39Q42 111 50 139T74 189T113 224T168 238Q199 238 231 228T297 203Q331 190 362 179T422 168Q452 168 468 189T489 240H544Z"  />
<glyph unicode="&#x2260;" horiz-adv-x="584" d="M264 108L191 -41L121 -3L176 108H49V192H217L277 315H49V399H319L392 548L462 511L406 399H535V315H365L305 192H535V108H264Z"  />
<glyph unicode="&#x2264;" horiz-adv-x="584" d="M48 309V395L535 578V489L157 352L535 218V130L48 309ZM48 8V92H535V8H48Z"  />
<glyph unicode="&#x2265;" horiz-adv-x="584" d="M48 130V218L425 352L48 489V578L535 395V309L48 130ZM48 8V92H535V8H48Z"  />
<glyph unicode="&#x25CA;" horiz-adv-x="593" d="M337 -35H255L82 356L255 747H337L511 356L337 -35ZM296 661L169 356L296 51L424 356L296 661Z"  />
<glyph unicode="&#xFB01;" horiz-adv-x="609" d="M411 720H523V618H411V720ZM421 0V502H514V0H421ZM339 652Q327 653 313 653T284 654Q255 654 240 648T218 631T209 607T208 581V502H325V434H208V0H115V434H16V502H115V559Q115 585 116 603T119 635T125 659T136 679Q153 704 183 719T262 734Q282 734 303 732T339 727V652Z"  />
<glyph unicode="&#xFB02;" horiz-adv-x="607" d="M419 721H513V0H419V721ZM339 652Q327 653 313 653T284 654Q255 654 240 648T218 631T209 607T208 581V502H325V434H208V0H115V434H16V502H115V559Q115 585 116 603T119 635T125 659T136 679Q153 704 183 719T262 734Q282 734 303 732T339 727V652Z"  />

</font>
</defs>
</svg>
